<?xml version="1.0" encoding="utf-8"?>
<!DOCTYPE svg PUBLIC "-//W3C//DTD SVG 1.1//EN" "http://www.w3.org/Graphics/SVG/1.1/DTD/svg11.dtd">
<svg  version="1.1" id="Layer_1" xmlns="http://www.w3.org/2000/svg" xmlns:xlink="http://www.w3.org/1999/xlink" width="693" height="513" viewBox="0 0 693 513"
	 overflow="visible" enable-background="new 0 0 693 513" xml:space="preserve">
<rect fill="none" width="693" height="513"/>
<line fill="none" stroke="#000000" x1="351" y1="360" x2="351" y2="252"/>
<polyline fill="none" stroke="#000000" points="207,144 351,252 495,144 "/>
<path fill="#FFFFFF" stroke="#000000" d="M378,267.401c0,6.405-5.193,11.599-11.599,11.599h-30.803
	c-6.406,0-11.599-5.193-11.599-11.599v-21.803c0-6.406,5.193-11.599,11.599-11.599h30.803c6.406,0,11.599,5.193,11.599,11.599
	V267.401z"/>
<polyline fill="none" stroke="#000000" points="207,252 207,144 351,36 "/>
<path fill="#FFFFFF" stroke="#000000" d="M243,159.401c0,6.406-5.193,11.599-11.599,11.599h-48.803
	c-6.406,0-11.599-5.193-11.599-11.599v-21.803c0-6.406,5.193-11.599,11.599-11.599h48.803c6.406,0,11.599,5.193,11.599,11.599
	V159.401z"/>
<line fill="none" stroke="#000000" x1="207" y1="252" x2="63" y2="360"/>
<line fill="none" stroke="#000000" x1="63" y1="252" x2="63" y2="144"/>
<line fill="none" stroke="#000000" x1="495" y1="360" x2="351" y2="144"/>
<line fill="none" stroke="#000000" x1="639" y1="360" x2="639" y2="144"/>
<polygon fill="none" stroke="#000000" points="351,468 495,360 639,144 351,36 495,144 639,360 "/>
<polygon fill="none" stroke="#000000" points="351,468 63,360 63,252 351,144 351,36 63,144 207,252 351,369 "/>
<path fill="#FFFFFF" stroke="#000000" d="M432,51.401C432,57.807,426.807,63,420.401,63H281.599C275.193,63,270,57.807,270,51.401
	V29.599C270,23.193,275.193,18,281.599,18h138.803C426.807,18,432,23.193,432,29.599V51.401z"/>
<path fill="#FFFFFF" stroke="#000000" d="M108,159.401c0,6.406-5.193,11.599-11.599,11.599H29.599C23.193,171,18,165.807,18,159.401
	v-21.803C18,131.193,23.193,126,29.599,126h66.803c6.406,0,11.599,5.193,11.599,11.599V159.401z"/>
<path fill="#FFFFFF" stroke="#000000" d="M396,159.401c0,6.406-5.193,11.599-11.599,11.599h-66.803
	c-6.406,0-11.599-5.193-11.599-11.599v-21.803c0-6.406,5.193-11.599,11.599-11.599h66.803c6.405,0,11.599,5.193,11.599,11.599
	V159.401z"/>
<path fill="#FFFFFF" stroke="#000000" d="M540,159.401c0,6.406-5.193,11.599-11.599,11.599h-66.803
	c-6.405,0-11.599-5.193-11.599-11.599v-21.803c0-6.406,5.193-11.599,11.599-11.599h66.803c6.405,0,11.599,5.193,11.599,11.599
	V159.401z"/>
<path fill="#FFFFFF" stroke="#000000" d="M675,159.401c0,6.406-5.193,11.599-11.599,11.599h-48.803
	c-6.405,0-11.599-5.193-11.599-11.599v-21.803c0-6.406,5.193-11.599,11.599-11.599h48.803c6.405,0,11.599,5.193,11.599,11.599
	V159.401z"/>
<path fill="#FFFFFF" stroke="#000000" d="M675,375.401c0,6.405-5.193,11.599-11.599,11.599h-48.803
	c-6.405,0-11.599-5.193-11.599-11.599v-21.803c0-6.405,5.193-11.599,11.599-11.599h48.803c6.405,0,11.599,5.193,11.599,11.599
	V375.401z"/>
<path fill="#FFFFFF" stroke="#000000" d="M522,375.401c0,6.405-5.193,11.599-11.599,11.599h-30.803
	c-6.405,0-11.599-5.193-11.599-11.599v-21.803c0-6.405,5.193-11.599,11.599-11.599h30.803c6.405,0,11.599,5.193,11.599,11.599
	V375.401z"/>
<path fill="#FFFFFF" stroke="#000000" d="M108,267.401c0,6.405-5.193,11.599-11.599,11.599H29.599C23.193,279,18,273.807,18,267.401
	v-21.803C18,239.193,23.193,234,29.599,234h66.803c6.405,0,11.599,5.193,11.599,11.599V267.401z"/>
<path fill="#FFFFFF" stroke="#000000" d="M234,267.401c0,6.405-5.193,11.599-11.599,11.599h-30.803
	c-6.406,0-11.599-5.193-11.599-11.599v-21.803c0-6.406,5.193-11.599,11.599-11.599h30.803c6.406,0,11.599,5.193,11.599,11.599
	V267.401z"/>
<path fill="#FFFFFF" stroke="#000000" d="M378,375.401c0,6.405-5.193,11.599-11.599,11.599h-30.803
	c-6.405,0-11.599-5.193-11.599-11.599v-21.803c0-6.405,5.193-11.599,11.599-11.599h30.803c6.405,0,11.599,5.193,11.599,11.599
	V375.401z"/>
<path fill="#FFFFFF" stroke="#000000" d="M90,375.401C90,381.807,84.807,387,78.401,387H47.599C41.193,387,36,381.807,36,375.401
	v-21.803C36,347.193,41.193,342,47.599,342h30.803C84.807,342,90,347.193,90,353.599V375.401z"/>
<path fill="#FFFFFF" stroke="#000000" d="M396,483.401c0,6.405-5.193,11.599-11.599,11.599h-66.803
	c-6.406,0-11.599-5.193-11.599-11.599v-21.803c0-6.405,5.193-11.599,11.599-11.599h66.803c6.405,0,11.599,5.193,11.599,11.599
	V483.401z"/>
<g>
	<path d="M345.933,468.072l1.116-1.566c-1.008-1.098-1.602-2.682-1.602-4.5c0-3.834,2.412-6.336,5.598-6.336
		c1.116,0,2.16,0.324,3.024,0.954l1.062-1.458l0.954,0.647l-1.116,1.549c1.008,1.098,1.566,2.682,1.566,4.464
		c0,4.229-2.61,6.372-5.526,6.372c-1.134,0-2.196-0.342-3.06-0.973l-1.134,1.549L345.933,468.072z M353.295,457.776
		c-0.612-0.522-1.368-0.847-2.286-0.847c-2.628,0-3.96,2.448-3.96,5.004c0,1.332,0.342,2.322,0.882,3.24l0.036-0.018
		L353.295,457.776z M348.723,466.074c0.594,0.558,1.278,0.863,2.268,0.863c2.52,0,3.942-2.321,3.942-5.058
		c0-1.026-0.216-2.105-0.846-3.15h-0.054L348.723,466.074z"/>
	<path d="M317.578,480.366c1.278,0,1.458-0.702,1.458-1.332c0-0.504-0.072-1.008-0.144-1.513c-0.072-0.504-0.144-1.008-0.144-1.493
		c0-1.656,1.098-2.358,2.628-2.358h0.36v0.99h-0.306c-1.062,0.018-1.44,0.576-1.44,1.548c0,0.414,0.072,0.846,0.126,1.278
		c0.072,0.449,0.144,0.882,0.144,1.367c0.018,1.152-0.504,1.729-1.296,1.944v0.036c0.792,0.198,1.314,0.81,1.296,1.962
		c0,0.486-0.072,0.937-0.144,1.368c-0.054,0.45-0.126,0.864-0.126,1.296c0,1.008,0.432,1.548,1.44,1.566h0.306v0.989h-0.378
		c-1.476,0-2.61-0.647-2.61-2.466c0-0.485,0.072-0.99,0.162-1.476c0.054-0.486,0.126-0.973,0.126-1.44c0-0.576-0.18-1.35-1.458-1.35
		V480.366z"/>
	<path d="M329.71,485.694c-0.414,0.197-1.332,0.504-2.502,0.504c-2.628,0-4.338-1.782-4.338-4.464c0-2.683,1.836-4.645,4.68-4.645
		c0.936,0,1.764,0.234,2.196,0.468l-0.36,1.206c-0.378-0.197-0.972-0.414-1.836-0.414c-1.998,0-3.078,1.494-3.078,3.312
		c0,2.016,1.296,3.258,3.024,3.258c0.9,0,1.494-0.216,1.944-0.414L329.71,485.694z"/>
	<path d="M330.27,488.232c0.396-1.08,0.882-3.007,1.08-4.32l1.764-0.18c-0.432,1.529-1.224,3.527-1.728,4.374L330.27,488.232z"/>
	<path d="M335.922,481.914c0.036,2.142,1.386,3.023,2.97,3.023c1.134,0,1.836-0.197,2.412-0.432l0.288,1.116
		c-0.558,0.252-1.53,0.558-2.916,0.558c-2.664,0-4.284-1.781-4.284-4.392c0-2.646,1.566-4.716,4.104-4.716
		c2.844,0,3.582,2.502,3.582,4.104c0,0.324-0.018,0.576-0.054,0.756L335.922,481.914z M340.548,480.78
		c0.018-0.99-0.414-2.574-2.178-2.574c-1.62,0-2.304,1.476-2.43,2.574H340.548z"/>
	<path d="M342.675,488.232c0.396-1.08,0.882-3.007,1.08-4.32l1.764-0.18c-0.432,1.529-1.224,3.527-1.728,4.374L342.675,488.232z"/>
	<path d="M350.973,486.198c-2.34,0-4.176-1.729-4.176-4.482c0-2.916,1.926-4.626,4.32-4.626c2.502,0,4.194,1.818,4.194,4.464
		c0,3.24-2.25,4.645-4.32,4.645H350.973z M351.027,485.01c1.512,0,2.646-1.422,2.646-3.401c0-1.477-0.738-3.33-2.61-3.33
		c-1.854,0-2.664,1.728-2.664,3.384c0,1.908,1.08,3.348,2.61,3.348H351.027z"/>
	<path d="M355.782,488.232c0.396-1.08,0.882-3.007,1.08-4.32l1.764-0.18c-0.432,1.529-1.224,3.527-1.728,4.374L355.782,488.232z"/>
	<path d="M360.534,480.132c0-1.116-0.018-2.016-0.072-2.844h1.422l0.09,1.494h0.036c0.63-1.08,1.674-1.692,3.078-1.692
		c2.124,0,3.708,1.782,3.708,4.428c0,3.133-1.926,4.681-3.96,4.681c-1.17,0-2.16-0.504-2.682-1.368h-0.036v4.734h-1.584V480.132z
		 M362.118,482.454c0,0.216,0.018,0.45,0.072,0.647c0.27,1.099,1.242,1.854,2.358,1.854c1.674,0,2.646-1.368,2.646-3.366
		c0-1.746-0.9-3.24-2.574-3.24c-1.08,0-2.106,0.756-2.412,1.944c-0.036,0.216-0.09,0.45-0.09,0.648V482.454z"/>
	<path d="M369.249,488.232c0.396-1.08,0.882-3.007,1.08-4.32l1.764-0.18c-0.432,1.529-1.224,3.527-1.728,4.374L369.249,488.232z"/>
	<path d="M373.784,484.398c0.486,0.287,1.314,0.611,2.106,0.611c1.134,0,1.674-0.558,1.674-1.296c0-0.756-0.45-1.17-1.602-1.602
		c-1.584-0.576-2.322-1.422-2.322-2.467c0-1.403,1.152-2.556,3.006-2.556c0.882,0,1.656,0.234,2.124,0.54l-0.378,1.134
		c-0.342-0.197-0.972-0.504-1.782-0.504c-0.936,0-1.44,0.54-1.44,1.188c0,0.737,0.504,1.062,1.638,1.494
		c1.494,0.558,2.286,1.313,2.286,2.628c0,1.548-1.206,2.628-3.24,2.628c-0.954,0-1.836-0.252-2.448-0.612L373.784,484.398z"/>
	<path d="M384.422,481.284c-1.278,0-1.458,0.773-1.458,1.35c0,0.468,0.072,0.954,0.144,1.44c0.072,0.485,0.144,0.99,0.144,1.476
		c0,1.818-1.134,2.466-2.61,2.466h-0.378v-0.989h0.306c1.008-0.019,1.44-0.559,1.44-1.566c0-0.432-0.072-0.846-0.126-1.296
		c-0.072-0.432-0.144-0.882-0.144-1.368c-0.018-1.152,0.504-1.764,1.296-1.962v-0.036c-0.792-0.216-1.314-0.792-1.296-1.944
		c0-0.485,0.072-0.918,0.144-1.367c0.054-0.433,0.126-0.864,0.126-1.278c0-0.972-0.378-1.53-1.44-1.548h-0.306v-0.99h0.36
		c1.53,0,2.628,0.702,2.628,2.358c0,0.485-0.072,0.989-0.144,1.493c-0.072,0.505-0.144,1.009-0.144,1.513
		c0,0.63,0.18,1.332,1.458,1.332V481.284z"/>
</g>
<g>
	<path d="M459.856,138.366c1.277,0,1.458-0.702,1.458-1.332c0-0.504-0.072-1.008-0.145-1.512c-0.071-0.504-0.144-1.008-0.144-1.494
		c0-1.656,1.098-2.358,2.628-2.358h0.36v0.99h-0.307c-1.062,0.018-1.439,0.576-1.439,1.548c0,0.414,0.071,0.846,0.126,1.278
		c0.071,0.45,0.144,0.882,0.144,1.368c0.019,1.152-0.504,1.728-1.296,1.944v0.036c0.792,0.198,1.314,0.81,1.296,1.962
		c0,0.486-0.072,0.936-0.144,1.368c-0.055,0.45-0.126,0.864-0.126,1.296c0,1.008,0.432,1.548,1.439,1.566h0.307v0.99h-0.378
		c-1.477,0-2.61-0.648-2.61-2.466c0-0.486,0.072-0.99,0.162-1.476c0.054-0.486,0.126-0.972,0.126-1.44
		c0-0.576-0.181-1.35-1.458-1.35V138.366z"/>
	<path d="M468.712,133.776h-0.036l-2.033,1.098l-0.307-1.206l2.557-1.368h1.35V144h-1.53V133.776z"/>
	<path d="M473.986,146.232c0.396-1.08,0.882-3.006,1.08-4.32l1.764-0.18c-0.433,1.53-1.225,3.528-1.729,4.374L473.986,146.232z"/>
	<path d="M478.611,142.2c0.45,0.27,1.477,0.72,2.593,0.72c2.016,0,2.664-1.278,2.646-2.268c-0.018-1.638-1.494-2.34-3.023-2.34
		h-0.883v-1.188h0.883c1.151,0,2.609-0.594,2.609-1.98c0-0.936-0.594-1.764-2.052-1.764c-0.937,0-1.836,0.414-2.34,0.774
		l-0.433-1.152c0.63-0.45,1.818-0.9,3.078-0.9c2.305,0,3.349,1.368,3.349,2.79c0,1.224-0.738,2.25-2.16,2.772v0.036
		c1.439,0.27,2.609,1.35,2.609,2.988c0,1.872-1.476,3.51-4.266,3.51c-1.314,0-2.466-0.414-3.042-0.792L478.611,142.2z"/>
	<path d="M486.945,146.232c0.396-1.08,0.882-3.006,1.08-4.32l1.764-0.18c-0.432,1.53-1.224,3.528-1.728,4.374L486.945,146.232z"/>
	<path d="M498.177,133.632h-4.464l-0.45,2.97c0.271-0.036,0.522-0.072,0.954-0.072c0.918,0,1.801,0.198,2.521,0.63
		c0.918,0.504,1.674,1.53,1.674,3.042c0,2.286-1.818,3.996-4.356,3.996c-1.277,0-2.34-0.36-2.916-0.72l0.396-1.206
		c0.486,0.288,1.44,0.648,2.52,0.648c1.477,0,2.772-0.972,2.755-2.556c0-1.548-1.026-2.61-3.349-2.61
		c-0.684,0-1.206,0.054-1.638,0.126l0.756-5.58h5.598V133.632z"/>
	<path d="M499.905,146.232c0.396-1.08,0.882-3.006,1.079-4.32l1.765-0.18c-0.433,1.53-1.225,3.528-1.729,4.374L499.905,146.232z"/>
	<path d="M511.749,132.3v1.044L506.654,144h-1.62l5.059-10.35v-0.036h-5.725V132.3H511.749z"/>
	<path d="M512.864,146.232c0.396-1.08,0.882-3.006,1.08-4.32l1.764-0.18c-0.432,1.53-1.224,3.528-1.728,4.374L512.864,146.232z"/>
	<path d="M518.03,142.902c0.342,0.018,0.738,0,1.277-0.072c0.919-0.108,1.782-0.486,2.448-1.134
		c0.774-0.702,1.332-1.728,1.548-3.114h-0.054c-0.647,0.792-1.584,1.26-2.771,1.26c-2.106,0-3.456-1.584-3.456-3.6
		c0-2.196,1.62-4.14,4.014-4.14s3.87,1.926,3.87,4.932c0,2.574-0.864,4.374-2.017,5.508c-0.899,0.864-2.142,1.422-3.401,1.566
		c-0.576,0.072-1.099,0.108-1.458,0.09V142.902z M520.893,133.308c-1.332,0-2.286,1.188-2.286,2.844c0,1.458,0.882,2.484,2.25,2.484
		c1.062,0,1.89-0.522,2.321-1.224c0.072-0.144,0.126-0.324,0.126-0.576c0.019-2.016-0.737-3.528-2.394-3.528H520.893z"/>
	<path d="M530.144,139.284c-1.277,0-1.458,0.774-1.458,1.35c0,0.468,0.072,0.954,0.145,1.44c0.071,0.486,0.144,0.99,0.144,1.476
		c0,1.818-1.134,2.466-2.609,2.466h-0.379v-0.99h0.307c1.008-0.018,1.439-0.558,1.439-1.566c0-0.432-0.071-0.846-0.126-1.296
		c-0.071-0.432-0.144-0.882-0.144-1.368c-0.019-1.152,0.504-1.764,1.296-1.962v-0.036c-0.792-0.216-1.314-0.792-1.296-1.944
		c0-0.486,0.072-0.918,0.144-1.368c0.055-0.432,0.126-0.864,0.126-1.278c0-0.972-0.378-1.53-1.439-1.548h-0.307v-0.99h0.36
		c1.53,0,2.628,0.702,2.628,2.358c0,0.486-0.072,0.99-0.144,1.494c-0.072,0.504-0.145,1.008-0.145,1.512
		c0,0.63,0.181,1.332,1.458,1.332V139.284z"/>
	<path d="M485.451,156.366c1.278,0,1.458-0.702,1.458-1.332c0-0.504-0.072-1.008-0.145-1.512c-0.071-0.504-0.144-1.008-0.144-1.494
		c0-1.656,1.098-2.358,2.628-2.358h0.36v0.99h-0.307c-1.062,0.018-1.439,0.576-1.439,1.548c0,0.414,0.072,0.846,0.126,1.278
		c0.072,0.45,0.144,0.882,0.144,1.368c0.019,1.152-0.504,1.728-1.296,1.944v0.036c0.792,0.198,1.314,0.81,1.296,1.962
		c0,0.486-0.071,0.936-0.144,1.368c-0.054,0.45-0.126,0.864-0.126,1.296c0,1.008,0.432,1.548,1.439,1.566h0.307v0.99h-0.378
		c-1.477,0-2.61-0.648-2.61-2.466c0-0.486,0.072-0.99,0.162-1.476c0.054-0.486,0.126-0.972,0.126-1.44c0-0.576-0.18-1.35-1.458-1.35
		V156.366z"/>
	<path d="M494.919,162.198c-2.34,0-4.176-1.728-4.176-4.482c0-2.916,1.926-4.626,4.32-4.626c2.502,0,4.193,1.818,4.193,4.464
		c0,3.24-2.25,4.645-4.319,4.645H494.919z M494.973,161.01c1.513,0,2.646-1.422,2.646-3.402c0-1.476-0.738-3.33-2.61-3.33
		c-1.854,0-2.664,1.728-2.664,3.384c0,1.908,1.08,3.348,2.61,3.348H494.973z"/>
	<path d="M504.549,157.284c-1.278,0-1.458,0.774-1.458,1.35c0,0.468,0.072,0.954,0.145,1.44c0.071,0.486,0.144,0.99,0.144,1.476
		c0,1.818-1.134,2.466-2.61,2.466h-0.378v-0.99h0.307c1.008-0.018,1.439-0.558,1.439-1.566c0-0.432-0.071-0.846-0.126-1.296
		c-0.071-0.432-0.144-0.882-0.144-1.368c-0.019-1.152,0.504-1.764,1.296-1.962v-0.036c-0.792-0.216-1.314-0.792-1.296-1.944
		c0-0.486,0.072-0.918,0.144-1.368c0.055-0.432,0.126-0.864,0.126-1.278c0-0.972-0.378-1.53-1.439-1.548h-0.307v-0.99h0.36
		c1.53,0,2.628,0.702,2.628,2.358c0,0.486-0.072,0.99-0.144,1.494c-0.072,0.504-0.145,1.008-0.145,1.512
		c0,0.63,0.18,1.332,1.458,1.332V157.284z"/>
</g>
<g>
	<path d="M485.775,354.366c1.277,0,1.458-0.702,1.458-1.332c0-0.504-0.072-1.008-0.145-1.513c-0.071-0.504-0.144-1.008-0.144-1.493
		c0-1.656,1.098-2.358,2.628-2.358h0.36v0.99h-0.307c-1.062,0.018-1.439,0.576-1.439,1.548c0,0.414,0.071,0.846,0.126,1.278
		c0.071,0.449,0.144,0.882,0.144,1.367c0.019,1.152-0.504,1.729-1.296,1.944v0.036c0.792,0.198,1.314,0.81,1.296,1.962
		c0,0.486-0.072,0.937-0.144,1.368c-0.055,0.45-0.126,0.864-0.126,1.296c0,1.008,0.432,1.548,1.439,1.566h0.307v0.989h-0.378
		c-1.477,0-2.61-0.647-2.61-2.466c0-0.485,0.072-0.99,0.162-1.476c0.054-0.486,0.126-0.973,0.126-1.44
		c0-0.576-0.181-1.35-1.458-1.35V354.366z"/>
	<path d="M491.193,360v-0.972l1.242-1.206c2.987-2.845,4.355-4.356,4.355-6.12c0-1.188-0.558-2.286-2.304-2.286
		c-1.062,0-1.944,0.54-2.484,0.99l-0.504-1.116c0.792-0.666,1.962-1.188,3.312-1.188c2.502,0,3.563,1.729,3.563,3.402
		c0,2.16-1.565,3.906-4.032,6.282l-0.918,0.864v0.035h5.238V360H491.193z"/>
	<path d="M504.225,355.284c-1.277,0-1.458,0.773-1.458,1.35c0,0.468,0.072,0.954,0.145,1.44c0.071,0.485,0.144,0.99,0.144,1.476
		c0,1.818-1.134,2.466-2.609,2.466h-0.379v-0.989h0.307c1.008-0.019,1.439-0.559,1.439-1.566c0-0.432-0.071-0.846-0.126-1.296
		c-0.071-0.432-0.144-0.882-0.144-1.368c-0.019-1.152,0.504-1.764,1.296-1.962v-0.036c-0.792-0.216-1.314-0.792-1.296-1.944
		c0-0.485,0.072-0.918,0.144-1.367c0.055-0.433,0.126-0.864,0.126-1.278c0-0.972-0.378-1.53-1.439-1.548h-0.307v-0.99h0.36
		c1.53,0,2.628,0.702,2.628,2.358c0,0.485-0.072,0.989-0.144,1.493c-0.072,0.505-0.145,1.009-0.145,1.513
		c0,0.63,0.181,1.332,1.458,1.332V355.284z"/>
	<path d="M479.068,372.366c1.278,0,1.458-0.702,1.458-1.332c0-0.504-0.071-1.008-0.144-1.513c-0.072-0.504-0.145-1.008-0.145-1.493
		c0-1.656,1.099-2.358,2.628-2.358h0.36v0.99h-0.306c-1.062,0.018-1.44,0.576-1.44,1.548c0,0.414,0.072,0.846,0.126,1.278
		c0.072,0.449,0.145,0.882,0.145,1.367c0.018,1.152-0.504,1.729-1.296,1.944v0.036c0.792,0.198,1.313,0.81,1.296,1.962
		c0,0.486-0.072,0.937-0.145,1.368c-0.054,0.45-0.126,0.864-0.126,1.296c0,1.008,0.433,1.548,1.44,1.566h0.306v0.989h-0.378
		c-1.476,0-2.61-0.647-2.61-2.466c0-0.485,0.072-0.99,0.162-1.476c0.055-0.486,0.126-0.973,0.126-1.44c0-0.576-0.18-1.35-1.458-1.35
		V372.366z"/>
	<path d="M485.891,373.914c0.036,2.142,1.386,3.023,2.97,3.023c1.134,0,1.836-0.197,2.412-0.432l0.288,1.116
		c-0.558,0.252-1.53,0.558-2.916,0.558c-2.664,0-4.284-1.781-4.284-4.392c0-2.646,1.566-4.716,4.104-4.716
		c2.844,0,3.582,2.502,3.582,4.104c0,0.324-0.019,0.576-0.055,0.756L485.891,373.914z M490.517,372.78
		c0.018-0.99-0.414-2.574-2.178-2.574c-1.62,0-2.305,1.476-2.431,2.574H490.517z"/>
	<path d="M492.644,380.232c0.396-1.08,0.883-3.007,1.08-4.32l1.765-0.18c-0.433,1.529-1.225,3.527-1.729,4.374L492.644,380.232z"/>
	<path d="M497.396,372.132c0-1.116-0.018-2.016-0.071-2.844h1.422l0.09,1.494h0.036c0.63-1.08,1.674-1.692,3.078-1.692
		c2.124,0,3.708,1.782,3.708,4.428c0,3.133-1.927,4.681-3.96,4.681c-1.171,0-2.16-0.504-2.683-1.368h-0.036v4.734h-1.584V372.132z
		 M498.979,374.454c0,0.216,0.019,0.45,0.072,0.647c0.27,1.099,1.242,1.854,2.358,1.854c1.674,0,2.646-1.368,2.646-3.366
		c0-1.746-0.899-3.24-2.574-3.24c-1.08,0-2.105,0.756-2.412,1.944c-0.035,0.216-0.09,0.45-0.09,0.648V374.454z"/>
	<path d="M510.932,373.284c-1.278,0-1.458,0.773-1.458,1.35c0,0.468,0.072,0.954,0.144,1.44c0.072,0.485,0.145,0.99,0.145,1.476
		c0,1.818-1.134,2.466-2.61,2.466h-0.378v-0.989h0.306c1.009-0.019,1.44-0.559,1.44-1.566c0-0.432-0.072-0.846-0.126-1.296
		c-0.072-0.432-0.145-0.882-0.145-1.368c-0.018-1.152,0.505-1.764,1.297-1.962v-0.036c-0.792-0.216-1.314-0.792-1.297-1.944
		c0-0.485,0.072-0.918,0.145-1.367c0.054-0.433,0.126-0.864,0.126-1.278c0-0.972-0.378-1.53-1.44-1.548h-0.306v-0.99h0.36
		c1.529,0,2.628,0.702,2.628,2.358c0,0.485-0.072,0.989-0.145,1.493c-0.071,0.505-0.144,1.009-0.144,1.513
		c0,0.63,0.18,1.332,1.458,1.332V373.284z"/>
</g>
<g>
	<path d="M616.815,354.366c1.278,0,1.458-0.702,1.458-1.332c0-0.504-0.071-1.008-0.144-1.513c-0.072-0.504-0.145-1.008-0.145-1.493
		c0-1.656,1.099-2.358,2.628-2.358h0.36v0.99h-0.306c-1.062,0.018-1.44,0.576-1.44,1.548c0,0.414,0.072,0.846,0.126,1.278
		c0.072,0.449,0.145,0.882,0.145,1.367c0.018,1.152-0.504,1.729-1.296,1.944v0.036c0.792,0.198,1.313,0.81,1.296,1.962
		c0,0.486-0.072,0.937-0.145,1.368c-0.054,0.45-0.126,0.864-0.126,1.296c0,1.008,0.433,1.548,1.44,1.566h0.306v0.989h-0.378
		c-1.476,0-2.61-0.647-2.61-2.466c0-0.485,0.072-0.99,0.162-1.476c0.055-0.486,0.126-0.973,0.126-1.44c0-0.576-0.18-1.35-1.458-1.35
		V354.366z"/>
	<path d="M622.611,358.2c0.45,0.27,1.477,0.72,2.593,0.72c2.016,0,2.664-1.278,2.646-2.268c-0.018-1.639-1.494-2.341-3.023-2.341
		h-0.883v-1.188h0.883c1.151,0,2.609-0.594,2.609-1.98c0-0.936-0.594-1.764-2.052-1.764c-0.937,0-1.836,0.414-2.34,0.774
		l-0.433-1.152c0.63-0.45,1.818-0.9,3.078-0.9c2.305,0,3.349,1.368,3.349,2.79c0,1.225-0.738,2.25-2.16,2.772v0.036
		c1.439,0.27,2.609,1.35,2.609,2.987c0,1.872-1.476,3.511-4.266,3.511c-1.314,0-2.466-0.414-3.042-0.792L622.611,358.2z"/>
	<path d="M630.945,362.232c0.396-1.08,0.882-3.007,1.08-4.32l1.764-0.18c-0.432,1.529-1.224,3.527-1.728,4.374L630.945,362.232z"/>
	<path d="M642.177,349.632h-4.464l-0.45,2.97c0.271-0.035,0.522-0.071,0.954-0.071c0.918,0,1.801,0.197,2.521,0.63
		c0.918,0.504,1.674,1.53,1.674,3.042c0,2.286-1.818,3.996-4.356,3.996c-1.277,0-2.34-0.36-2.916-0.721l0.396-1.205
		c0.486,0.287,1.44,0.647,2.52,0.647c1.477,0,2.772-0.972,2.755-2.556c0-1.548-1.026-2.61-3.349-2.61
		c-0.684,0-1.206,0.054-1.638,0.126l0.756-5.58h5.598V349.632z"/>
	<path d="M643.905,362.232c0.396-1.08,0.882-3.007,1.079-4.32l1.765-0.18c-0.433,1.529-1.225,3.527-1.729,4.374L643.905,362.232z"/>
	<path d="M655.749,348.3v1.044L650.654,360h-1.62l5.059-10.35v-0.036h-5.725V348.3H655.749z"/>
	<path d="M661.185,355.284c-1.278,0-1.458,0.773-1.458,1.35c0,0.468,0.072,0.954,0.144,1.44c0.072,0.485,0.145,0.99,0.145,1.476
		c0,1.818-1.135,2.466-2.61,2.466h-0.378v-0.989h0.306c1.009-0.019,1.44-0.559,1.44-1.566c0-0.432-0.072-0.846-0.126-1.296
		c-0.072-0.432-0.145-0.882-0.145-1.368c-0.018-1.152,0.504-1.764,1.297-1.962v-0.036c-0.793-0.216-1.314-0.792-1.297-1.944
		c0-0.485,0.072-0.918,0.145-1.367c0.054-0.433,0.126-0.864,0.126-1.278c0-0.972-0.378-1.53-1.44-1.548h-0.306v-0.99h0.36
		c1.529,0,2.628,0.702,2.628,2.358c0,0.485-0.072,0.989-0.145,1.493c-0.071,0.505-0.144,1.009-0.144,1.513
		c0,0.63,0.18,1.332,1.458,1.332V355.284z"/>
	<path d="M622.718,372.366c1.278,0,1.458-0.702,1.458-1.332c0-0.504-0.072-1.008-0.144-1.513c-0.072-0.504-0.145-1.008-0.145-1.493
		c0-1.656,1.099-2.358,2.628-2.358h0.36v0.99h-0.306c-1.062,0.018-1.44,0.576-1.44,1.548c0,0.414,0.072,0.846,0.126,1.278
		c0.072,0.449,0.144,0.882,0.144,1.367c0.019,1.152-0.504,1.729-1.296,1.944v0.036c0.792,0.198,1.314,0.81,1.296,1.962
		c0,0.486-0.071,0.937-0.144,1.368c-0.054,0.45-0.126,0.864-0.126,1.296c0,1.008,0.432,1.548,1.44,1.566h0.306v0.989h-0.378
		c-1.477,0-2.61-0.647-2.61-2.466c0-0.485,0.072-0.99,0.162-1.476c0.054-0.486,0.126-0.973,0.126-1.44c0-0.576-0.18-1.35-1.458-1.35
		V372.366z"/>
	<path d="M632.186,378.198c-2.34,0-4.176-1.729-4.176-4.482c0-2.916,1.926-4.626,4.32-4.626c2.502,0,4.193,1.818,4.193,4.464
		c0,3.24-2.25,4.645-4.319,4.645H632.186z M632.24,377.01c1.512,0,2.646-1.422,2.646-3.401c0-1.477-0.738-3.33-2.61-3.33
		c-1.854,0-2.664,1.728-2.664,3.384c0,1.908,1.08,3.348,2.61,3.348H632.24z"/>
	<path d="M636.995,380.232c0.396-1.08,0.882-3.007,1.08-4.32l1.764-0.18c-0.432,1.529-1.224,3.527-1.729,4.374L636.995,380.232z"/>
	<path d="M641.746,372.132c0-1.116-0.018-2.016-0.071-2.844h1.422l0.09,1.494h0.036c0.63-1.08,1.674-1.692,3.078-1.692
		c2.124,0,3.708,1.782,3.708,4.428c0,3.133-1.927,4.681-3.96,4.681c-1.17,0-2.16-0.504-2.683-1.368h-0.036v4.734h-1.584V372.132z
		 M643.33,374.454c0,0.216,0.019,0.45,0.072,0.647c0.271,1.099,1.242,1.854,2.358,1.854c1.674,0,2.646-1.368,2.646-3.366
		c0-1.746-0.899-3.24-2.574-3.24c-1.079,0-2.105,0.756-2.411,1.944c-0.036,0.216-0.091,0.45-0.091,0.648V374.454z"/>
	<path d="M655.282,373.284c-1.278,0-1.458,0.773-1.458,1.35c0,0.468,0.072,0.954,0.144,1.44c0.072,0.485,0.145,0.99,0.145,1.476
		c0,1.818-1.134,2.466-2.61,2.466h-0.378v-0.989h0.307c1.008-0.019,1.439-0.559,1.439-1.566c0-0.432-0.072-0.846-0.126-1.296
		c-0.072-0.432-0.144-0.882-0.144-1.368c-0.019-1.152,0.504-1.764,1.296-1.962v-0.036c-0.792-0.216-1.314-0.792-1.296-1.944
		c0-0.485,0.071-0.918,0.144-1.367c0.054-0.433,0.126-0.864,0.126-1.278c0-0.972-0.378-1.53-1.439-1.548h-0.307v-0.99h0.36
		c1.53,0,2.628,0.702,2.628,2.358c0,0.485-0.072,0.989-0.145,1.493c-0.071,0.505-0.144,1.009-0.144,1.513
		c0,0.63,0.18,1.332,1.458,1.332V373.284z"/>
</g>
<g>
	<path d="M53.775,354.366c1.278,0,1.458-0.702,1.458-1.332c0-0.504-0.072-1.008-0.144-1.513c-0.072-0.504-0.144-1.008-0.144-1.493
		c0-1.656,1.098-2.358,2.628-2.358h0.36v0.99h-0.306c-1.062,0.018-1.44,0.576-1.44,1.548c0,0.414,0.072,0.846,0.126,1.278
		c0.072,0.449,0.144,0.882,0.144,1.367c0.018,1.152-0.504,1.729-1.296,1.944v0.036c0.792,0.198,1.314,0.81,1.296,1.962
		c0,0.486-0.072,0.937-0.144,1.368c-0.054,0.45-0.126,0.864-0.126,1.296c0,1.008,0.432,1.548,1.44,1.566h0.306v0.989h-0.378
		c-1.476,0-2.61-0.647-2.61-2.466c0-0.485,0.072-0.99,0.162-1.476c0.054-0.486,0.126-0.973,0.126-1.44c0-0.576-0.18-1.35-1.458-1.35
		V354.366z"/>
	<path d="M64.089,360v-3.186h-5.436v-1.026l5.22-7.488h1.71v7.29h1.638v1.225h-1.638V360H64.089z M64.089,355.59v-3.924
		c0-0.612,0.018-1.224,0.054-1.836h-0.054c-0.36,0.684-0.648,1.188-0.972,1.746l-2.862,3.978v0.036H64.089z"/>
	<path d="M72.225,355.284c-1.278,0-1.458,0.773-1.458,1.35c0,0.468,0.072,0.954,0.144,1.44c0.072,0.485,0.144,0.99,0.144,1.476
		c0,1.818-1.134,2.466-2.61,2.466h-0.378v-0.989h0.306c1.008-0.019,1.44-0.559,1.44-1.566c0-0.432-0.072-0.846-0.126-1.296
		c-0.072-0.432-0.144-0.882-0.144-1.368c-0.018-1.152,0.504-1.764,1.296-1.962v-0.036c-0.792-0.216-1.314-0.792-1.296-1.944
		c0-0.485,0.072-0.918,0.144-1.367c0.054-0.433,0.126-0.864,0.126-1.278c0-0.972-0.378-1.53-1.44-1.548h-0.306v-0.99h0.36
		c1.53,0,2.628,0.702,2.628,2.358c0,0.485-0.072,0.989-0.144,1.493c-0.072,0.505-0.144,1.009-0.144,1.513
		c0,0.63,0.18,1.332,1.458,1.332V355.284z"/>
	<path d="M42.865,372.366c1.278,0,1.458-0.702,1.458-1.332c0-0.504-0.072-1.008-0.144-1.513c-0.072-0.504-0.144-1.008-0.144-1.493
		c0-1.656,1.098-2.358,2.628-2.358h0.36v0.99h-0.306c-1.062,0.018-1.44,0.576-1.44,1.548c0,0.414,0.072,0.846,0.126,1.278
		c0.072,0.449,0.144,0.882,0.144,1.367c0.018,1.152-0.504,1.729-1.296,1.944v0.036c0.792,0.198,1.314,0.81,1.296,1.962
		c0,0.486-0.072,0.937-0.144,1.368c-0.054,0.45-0.126,0.864-0.126,1.296c0,1.008,0.432,1.548,1.44,1.566h0.306v0.989h-0.378
		c-1.476,0-2.61-0.647-2.61-2.466c0-0.485,0.072-0.99,0.162-1.476c0.054-0.486,0.126-0.973,0.126-1.44c0-0.576-0.18-1.35-1.458-1.35
		V372.366z"/>
	<path d="M54.997,377.694c-0.414,0.197-1.332,0.504-2.502,0.504c-2.628,0-4.338-1.782-4.338-4.464c0-2.683,1.836-4.645,4.68-4.645
		c0.936,0,1.764,0.234,2.196,0.468l-0.36,1.206c-0.378-0.197-0.972-0.414-1.836-0.414c-1.998,0-3.078,1.494-3.078,3.312
		c0,2.016,1.296,3.258,3.024,3.258c0.9,0,1.494-0.216,1.944-0.414L54.997,377.694z"/>
	<path d="M55.557,380.232c0.396-1.08,0.882-3.007,1.08-4.32l1.764-0.18c-0.432,1.529-1.224,3.527-1.728,4.374L55.557,380.232z"/>
	<path d="M61.208,373.914c0.036,2.142,1.386,3.023,2.97,3.023c1.134,0,1.836-0.197,2.412-0.432l0.288,1.116
		c-0.558,0.252-1.53,0.558-2.916,0.558c-2.664,0-4.284-1.781-4.284-4.392c0-2.646,1.566-4.716,4.104-4.716
		c2.844,0,3.582,2.502,3.582,4.104c0,0.324-0.018,0.576-0.054,0.756L61.208,373.914z M65.834,372.78
		c0.018-0.99-0.414-2.574-2.178-2.574c-1.62,0-2.304,1.476-2.43,2.574H65.834z"/>
	<path d="M67.962,380.232c0.396-1.08,0.882-3.007,1.08-4.32l1.764-0.18c-0.432,1.529-1.224,3.527-1.728,4.374L67.962,380.232z"/>
	<path d="M72.498,376.398c0.486,0.287,1.314,0.611,2.106,0.611c1.134,0,1.674-0.558,1.674-1.296c0-0.756-0.45-1.17-1.602-1.602
		c-1.584-0.576-2.322-1.422-2.322-2.467c0-1.403,1.152-2.556,3.006-2.556c0.882,0,1.656,0.234,2.124,0.54l-0.378,1.134
		c-0.342-0.197-0.972-0.504-1.782-0.504c-0.936,0-1.44,0.54-1.44,1.188c0,0.737,0.504,1.062,1.638,1.494
		c1.494,0.558,2.286,1.313,2.286,2.628c0,1.548-1.206,2.628-3.24,2.628c-0.954,0-1.836-0.252-2.448-0.612L72.498,376.398z"/>
	<path d="M83.135,373.284c-1.278,0-1.458,0.773-1.458,1.35c0,0.468,0.072,0.954,0.144,1.44c0.072,0.485,0.144,0.99,0.144,1.476
		c0,1.818-1.134,2.466-2.61,2.466h-0.378v-0.989h0.306c1.008-0.019,1.44-0.559,1.44-1.566c0-0.432-0.072-0.846-0.126-1.296
		c-0.072-0.432-0.144-0.882-0.144-1.368c-0.018-1.152,0.504-1.764,1.296-1.962v-0.036c-0.792-0.216-1.314-0.792-1.296-1.944
		c0-0.485,0.072-0.918,0.144-1.367c0.054-0.433,0.126-0.864,0.126-1.278c0-0.972-0.378-1.53-1.44-1.548h-0.306v-0.99h0.36
		c1.53,0,2.628,0.702,2.628,2.358c0,0.485-0.072,0.989-0.144,1.493c-0.072,0.505-0.144,1.009-0.144,1.513
		c0,0.63,0.18,1.332,1.458,1.332V373.284z"/>
</g>
<g>
	<path d="M29.719,246.366c1.278,0,1.458-0.702,1.458-1.332c0-0.504-0.072-1.008-0.144-1.512c-0.072-0.504-0.144-1.008-0.144-1.494
		c0-1.656,1.098-2.358,2.628-2.358h0.36v0.99h-0.306c-1.062,0.018-1.44,0.576-1.44,1.548c0,0.414,0.072,0.846,0.126,1.278
		c0.072,0.45,0.144,0.882,0.144,1.368c0.018,1.152-0.504,1.728-1.296,1.944v0.036c0.792,0.198,1.314,0.81,1.296,1.962
		c0,0.486-0.072,0.936-0.144,1.368c-0.054,0.45-0.126,0.864-0.126,1.296c0,1.008,0.432,1.548,1.44,1.566h0.306v0.99h-0.378
		c-1.476,0-2.61-0.648-2.61-2.466c0-0.486,0.072-0.99,0.162-1.476c0.054-0.486,0.126-0.972,0.126-1.44c0-0.576-0.18-1.35-1.458-1.35
		V246.366z"/>
	<path d="M40.033,252v-3.186h-5.436v-1.026l5.22-7.488h1.71v7.29h1.638v1.224h-1.638V252H40.033z M40.033,247.59v-3.924
		c0-0.612,0.018-1.224,0.054-1.836h-0.054c-0.36,0.684-0.648,1.188-0.972,1.746l-2.862,3.978v0.036H40.033z"/>
	<path d="M43.849,254.232c0.396-1.08,0.882-3.006,1.08-4.32l1.764-0.18c-0.432,1.53-1.224,3.528-1.728,4.374L43.849,254.232z"/>
	<path d="M54.774,241.398c-0.324-0.018-0.738,0.018-1.188,0.09c-2.502,0.396-3.798,2.214-4.068,4.158h0.036
		c0.558-0.756,1.548-1.368,2.844-1.368c2.07,0,3.528,1.512,3.528,3.78c0,2.16-1.458,4.14-3.906,4.14
		c-2.484,0-4.122-1.944-4.122-4.986c0-2.304,0.81-4.122,1.98-5.292c0.972-0.954,2.268-1.548,3.744-1.728
		c0.468-0.072,0.864-0.09,1.152-0.09V241.398z M52.057,250.974c1.35,0,2.268-1.134,2.268-2.808s-0.954-2.682-2.412-2.682
		c-0.954,0-1.854,0.576-2.286,1.44c-0.09,0.18-0.162,0.396-0.162,0.684c0.018,1.926,0.918,3.366,2.574,3.366H52.057z"/>
	<path d="M56.808,254.232c0.396-1.08,0.882-3.006,1.08-4.32l1.764-0.18c-0.432,1.53-1.224,3.528-1.728,4.374L56.808,254.232z"/>
	<path d="M64.98,240.102c2.268,0,3.42,1.404,3.42,2.88c0,0.99-0.504,2.07-1.944,2.736v0.054c1.458,0.576,2.358,1.62,2.358,3.024
		c0,2.052-1.746,3.402-3.978,3.402c-2.448,0-3.924-1.44-3.924-3.15c0-1.476,0.882-2.538,2.304-3.15v-0.054
		c-1.314-0.612-1.872-1.62-1.872-2.628c0-1.854,1.566-3.114,3.618-3.114H64.98z M64.89,251.046c1.422,0,2.34-0.882,2.34-2.088
		c0-1.404-0.99-2.106-2.574-2.556c-1.368,0.396-2.106,1.314-2.106,2.43c-0.054,1.17,0.846,2.214,2.322,2.214H64.89z M64.926,241.236
		c-1.314,0-2.034,0.864-2.034,1.872c-0.018,1.17,0.882,1.8,2.232,2.16c1.008-0.342,1.782-1.062,1.782-2.124
		c0-0.936-0.558-1.908-1.962-1.908H64.926z"/>
	<path d="M69.768,254.232c0.396-1.08,0.882-3.006,1.08-4.32l1.764-0.18c-0.432,1.53-1.224,3.528-1.728,4.374L69.768,254.232z"/>
	<path d="M77.454,241.776h-0.036l-2.034,1.098l-0.306-1.206l2.556-1.368h1.35V252h-1.53V241.776z"/>
	<path d="M86.975,252.198c-2.286,0-3.852-2.142-3.888-6.012c0-3.942,1.71-6.084,4.086-6.084c2.448,0,3.87,2.196,3.87,5.922
		c0,3.978-1.494,6.174-4.05,6.174H86.975z M87.047,250.974c1.602,0,2.376-1.89,2.376-4.878c0-2.88-0.72-4.77-2.376-4.77
		c-1.44,0-2.376,1.836-2.376,4.77c-0.036,3.042,0.9,4.878,2.358,4.878H87.047z"/>
	<path d="M96.281,247.284c-1.278,0-1.458,0.774-1.458,1.35c0,0.468,0.072,0.954,0.144,1.44c0.072,0.486,0.144,0.99,0.144,1.476
		c0,1.818-1.134,2.466-2.61,2.466h-0.378v-0.99h0.306c1.008-0.018,1.44-0.558,1.44-1.566c0-0.432-0.072-0.846-0.126-1.296
		c-0.072-0.432-0.144-0.882-0.144-1.368c-0.018-1.152,0.504-1.764,1.296-1.962v-0.036c-0.792-0.216-1.314-0.792-1.296-1.944
		c0-0.486,0.072-0.918,0.144-1.368c0.054-0.432,0.126-0.864,0.126-1.278c0-0.972-0.378-1.53-1.44-1.548h-0.306v-0.99h0.36
		c1.53,0,2.628,0.702,2.628,2.358c0,0.486-0.072,0.99-0.144,1.494c-0.072,0.504-0.144,1.008-0.144,1.512
		c0,0.63,0.18,1.332,1.458,1.332V247.284z"/>
	<path d="M48.122,264.366c1.278,0,1.458-0.702,1.458-1.332c0-0.504-0.072-1.008-0.144-1.512c-0.072-0.504-0.144-1.008-0.144-1.494
		c0-1.656,1.098-2.358,2.628-2.358h0.36v0.99h-0.306c-1.062,0.018-1.44,0.576-1.44,1.548c0,0.414,0.072,0.846,0.126,1.278
		c0.072,0.45,0.144,0.882,0.144,1.368c0.018,1.152-0.504,1.728-1.296,1.944v0.036c0.792,0.198,1.314,0.81,1.296,1.962
		c0,0.486-0.072,0.936-0.144,1.368c-0.054,0.45-0.126,0.864-0.126,1.296c0,1.008,0.432,1.548,1.44,1.566h0.306v0.989h-0.378
		c-1.476,0-2.61-0.647-2.61-2.466c0-0.486,0.072-0.99,0.162-1.476c0.054-0.486,0.126-0.972,0.126-1.44c0-0.576-0.18-1.35-1.458-1.35
		V264.366z"/>
	<path d="M60.254,269.694c-0.414,0.198-1.332,0.504-2.502,0.504c-2.628,0-4.338-1.782-4.338-4.464s1.836-4.644,4.68-4.644
		c0.936,0,1.764,0.234,2.196,0.468l-0.36,1.206c-0.378-0.198-0.972-0.414-1.836-0.414c-1.998,0-3.078,1.494-3.078,3.312
		c0,2.016,1.296,3.258,3.024,3.258c0.9,0,1.494-0.216,1.944-0.414L60.254,269.694z"/>
	<path d="M60.814,272.232c0.396-1.08,0.882-3.006,1.08-4.32l1.764-0.18c-0.432,1.53-1.224,3.528-1.728,4.375L60.814,272.232z"/>
	<path d="M66.466,265.914c0.036,2.142,1.386,3.024,2.97,3.024c1.134,0,1.836-0.198,2.412-0.432l0.288,1.116
		c-0.558,0.252-1.53,0.558-2.916,0.558c-2.664,0-4.284-1.782-4.284-4.392c0-2.646,1.566-4.716,4.104-4.716
		c2.844,0,3.582,2.502,3.582,4.104c0,0.324-0.018,0.576-0.054,0.756L66.466,265.914z M71.092,264.78
		c0.018-0.99-0.414-2.574-2.178-2.574c-1.62,0-2.304,1.476-2.43,2.574H71.092z"/>
	<path d="M77.878,265.284c-1.278,0-1.458,0.774-1.458,1.35c0,0.468,0.072,0.954,0.144,1.44c0.072,0.486,0.144,0.99,0.144,1.476
		c0,1.818-1.134,2.466-2.61,2.466H73.72v-0.989h0.306c1.008-0.019,1.44-0.559,1.44-1.566c0-0.432-0.072-0.846-0.126-1.296
		c-0.072-0.432-0.144-0.882-0.144-1.368c-0.018-1.152,0.504-1.764,1.296-1.962v-0.036c-0.792-0.216-1.314-0.792-1.296-1.944
		c0-0.486,0.072-0.918,0.144-1.368c0.054-0.432,0.126-0.864,0.126-1.278c0-0.972-0.378-1.53-1.44-1.548H73.72v-0.99h0.36
		c1.53,0,2.628,0.702,2.628,2.358c0,0.486-0.072,0.99-0.144,1.494c-0.072,0.504-0.144,1.008-0.144,1.512
		c0,0.63,0.18,1.332,1.458,1.332V265.284z"/>
</g>
<g>
	<path d="M311.239,138.366c1.278,0,1.458-0.702,1.458-1.332c0-0.504-0.072-1.008-0.144-1.512c-0.072-0.504-0.144-1.008-0.144-1.494
		c0-1.656,1.098-2.358,2.628-2.358h0.36v0.99h-0.306c-1.062,0.018-1.44,0.576-1.44,1.548c0,0.414,0.072,0.846,0.126,1.278
		c0.072,0.45,0.144,0.882,0.144,1.368c0.018,1.152-0.504,1.728-1.296,1.944v0.036c0.792,0.198,1.314,0.81,1.296,1.962
		c0,0.486-0.072,0.936-0.144,1.368c-0.054,0.45-0.126,0.864-0.126,1.296c0,1.008,0.432,1.548,1.44,1.566h0.306v0.99h-0.378
		c-1.476,0-2.61-0.648-2.61-2.466c0-0.486,0.072-0.99,0.162-1.476c0.054-0.486,0.126-0.972,0.126-1.44c0-0.576-0.18-1.35-1.458-1.35
		V138.366z"/>
	<path d="M316.657,144v-0.972l1.242-1.206c2.988-2.844,4.356-4.356,4.356-6.12c0-1.188-0.558-2.286-2.304-2.286
		c-1.062,0-1.944,0.54-2.484,0.99l-0.504-1.116c0.792-0.666,1.962-1.188,3.312-1.188c2.502,0,3.564,1.728,3.564,3.402
		c0,2.16-1.566,3.906-4.032,6.282l-0.918,0.864v0.036h5.238V144H316.657z"/>
	<path d="M325.369,146.232c0.396-1.08,0.882-3.006,1.08-4.32l1.764-0.18c-0.432,1.53-1.224,3.528-1.728,4.374L325.369,146.232z"/>
	<path d="M334.513,144v-3.186h-5.436v-1.026l5.22-7.488h1.71v7.29h1.638v1.224h-1.638V144H334.513z M334.513,139.59v-3.924
		c0-0.612,0.018-1.224,0.054-1.836h-0.054c-0.36,0.684-0.648,1.188-0.972,1.746l-2.862,3.978v0.036H334.513z"/>
	<path d="M338.329,146.232c0.396-1.08,0.882-3.006,1.08-4.32l1.764-0.18c-0.432,1.53-1.224,3.528-1.728,4.374L338.329,146.232z"/>
	<path d="M349.254,133.398c-0.324-0.018-0.738,0.018-1.188,0.09c-2.502,0.396-3.798,2.214-4.068,4.158h0.036
		c0.558-0.756,1.548-1.368,2.844-1.368c2.07,0,3.528,1.512,3.528,3.78c0,2.16-1.458,4.14-3.906,4.14
		c-2.484,0-4.122-1.944-4.122-4.986c0-2.304,0.81-4.122,1.98-5.292c0.972-0.954,2.268-1.548,3.744-1.728
		c0.468-0.072,0.864-0.09,1.152-0.09V133.398z M346.536,142.974c1.35,0,2.268-1.134,2.268-2.808s-0.954-2.682-2.412-2.682
		c-0.954,0-1.854,0.576-2.286,1.44c-0.09,0.18-0.162,0.396-0.162,0.684c0.018,1.926,0.918,3.366,2.574,3.366H346.536z"/>
	<path d="M351.288,146.232c0.396-1.08,0.882-3.006,1.08-4.32l1.764-0.18c-0.432,1.53-1.224,3.528-1.728,4.374L351.288,146.232z"/>
	<path d="M359.46,132.102c2.268,0,3.42,1.404,3.42,2.88c0,0.99-0.504,2.07-1.944,2.736v0.054c1.458,0.576,2.358,1.62,2.358,3.024
		c0,2.052-1.746,3.402-3.978,3.402c-2.448,0-3.924-1.44-3.924-3.15c0-1.476,0.882-2.538,2.304-3.15v-0.054
		c-1.314-0.612-1.872-1.62-1.872-2.628c0-1.854,1.566-3.114,3.618-3.114H359.46z M359.37,143.046c1.422,0,2.34-0.882,2.34-2.088
		c0-1.404-0.99-2.106-2.574-2.556c-1.368,0.396-2.106,1.314-2.106,2.43c-0.054,1.17,0.846,2.214,2.322,2.214H359.37z
		 M359.406,133.236c-1.314,0-2.034,0.864-2.034,1.872c-0.018,1.17,0.882,1.8,2.232,2.16c1.008-0.342,1.782-1.062,1.782-2.124
		c0-0.936-0.558-1.908-1.962-1.908H359.406z"/>
	<path d="M364.248,146.232c0.396-1.08,0.882-3.006,1.08-4.32l1.764-0.18c-0.432,1.53-1.224,3.528-1.728,4.374L364.248,146.232z"/>
	<path d="M371.933,133.776h-0.036l-2.034,1.098l-0.306-1.206l2.556-1.368h1.35V144h-1.53V133.776z"/>
	<path d="M381.455,144.198c-2.286,0-3.852-2.142-3.888-6.012c0-3.942,1.71-6.084,4.086-6.084c2.448,0,3.87,2.196,3.87,5.922
		c0,3.978-1.494,6.174-4.05,6.174H381.455z M381.527,142.974c1.602,0,2.376-1.89,2.376-4.878c0-2.88-0.72-4.77-2.376-4.77
		c-1.44,0-2.376,1.836-2.376,4.77c-0.036,3.042,0.9,4.878,2.358,4.878H381.527z"/>
	<path d="M390.761,139.284c-1.278,0-1.458,0.774-1.458,1.35c0,0.468,0.072,0.954,0.144,1.44c0.072,0.486,0.145,0.99,0.145,1.476
		c0,1.818-1.134,2.466-2.61,2.466h-0.378v-0.99h0.306c1.008-0.018,1.44-0.558,1.44-1.566c0-0.432-0.072-0.846-0.126-1.296
		c-0.072-0.432-0.144-0.882-0.144-1.368c-0.019-1.152,0.504-1.764,1.296-1.962v-0.036c-0.792-0.216-1.314-0.792-1.296-1.944
		c0-0.486,0.071-0.918,0.144-1.368c0.054-0.432,0.126-0.864,0.126-1.278c0-0.972-0.378-1.53-1.44-1.548h-0.306v-0.99h0.36
		c1.53,0,2.628,0.702,2.628,2.358c0,0.486-0.072,0.99-0.145,1.494c-0.071,0.504-0.144,1.008-0.144,1.512
		c0,0.63,0.18,1.332,1.458,1.332V139.284z"/>
	<path d="M341.883,156.366c1.278,0,1.458-0.702,1.458-1.332c0-0.504-0.072-1.008-0.144-1.512c-0.072-0.504-0.144-1.008-0.144-1.494
		c0-1.656,1.098-2.358,2.628-2.358h0.36v0.99h-0.306c-1.062,0.018-1.44,0.576-1.44,1.548c0,0.414,0.072,0.846,0.126,1.278
		c0.072,0.45,0.144,0.882,0.144,1.368c0.018,1.152-0.504,1.728-1.296,1.944v0.036c0.792,0.198,1.314,0.81,1.296,1.962
		c0,0.486-0.072,0.936-0.144,1.368c-0.054,0.45-0.126,0.864-0.126,1.296c0,1.008,0.432,1.548,1.44,1.566h0.306v0.99h-0.378
		c-1.476,0-2.61-0.648-2.61-2.466c0-0.486,0.072-0.99,0.162-1.476c0.054-0.486,0.126-0.972,0.126-1.44c0-0.576-0.18-1.35-1.458-1.35
		V156.366z"/>
	<path d="M348.705,157.914c0.036,2.142,1.386,3.024,2.97,3.024c1.134,0,1.836-0.198,2.412-0.432l0.288,1.116
		c-0.558,0.252-1.53,0.558-2.916,0.558c-2.664,0-4.284-1.782-4.284-4.392c0-2.646,1.566-4.716,4.104-4.716
		c2.844,0,3.582,2.502,3.582,4.104c0,0.324-0.018,0.576-0.054,0.756L348.705,157.914z M353.331,156.78
		c0.018-0.99-0.414-2.574-2.178-2.574c-1.62,0-2.304,1.476-2.43,2.574H353.331z"/>
	<path d="M360.117,157.284c-1.278,0-1.458,0.774-1.458,1.35c0,0.468,0.072,0.954,0.144,1.44c0.072,0.486,0.144,0.99,0.144,1.476
		c0,1.818-1.134,2.466-2.61,2.466h-0.378v-0.99h0.306c1.008-0.018,1.44-0.558,1.44-1.566c0-0.432-0.072-0.846-0.126-1.296
		c-0.072-0.432-0.144-0.882-0.144-1.368c-0.018-1.152,0.504-1.764,1.296-1.962v-0.036c-0.792-0.216-1.314-0.792-1.296-1.944
		c0-0.486,0.072-0.918,0.144-1.368c0.054-0.432,0.126-0.864,0.126-1.278c0-0.972-0.378-1.53-1.44-1.548h-0.306v-0.99h0.36
		c1.53,0,2.628,0.702,2.628,2.358c0,0.486-0.072,0.99-0.144,1.494c-0.072,0.504-0.144,1.008-0.144,1.512
		c0,0.63,0.18,1.332,1.458,1.332V157.284z"/>
</g>
<g>
	<path d="M341.775,354.366c1.278,0,1.458-0.702,1.458-1.332c0-0.504-0.072-1.008-0.144-1.513c-0.072-0.504-0.144-1.008-0.144-1.493
		c0-1.656,1.098-2.358,2.628-2.358h0.36v0.99h-0.306c-1.062,0.018-1.44,0.576-1.44,1.548c0,0.414,0.072,0.846,0.126,1.278
		c0.072,0.449,0.144,0.882,0.144,1.367c0.018,1.152-0.504,1.729-1.296,1.944v0.036c0.792,0.198,1.314,0.81,1.296,1.962
		c0,0.486-0.072,0.937-0.144,1.368c-0.054,0.45-0.126,0.864-0.126,1.296c0,1.008,0.432,1.548,1.44,1.566h0.306v0.989h-0.378
		c-1.476,0-2.61-0.647-2.61-2.466c0-0.485,0.072-0.99,0.162-1.476c0.054-0.486,0.126-0.973,0.126-1.44c0-0.576-0.18-1.35-1.458-1.35
		V354.366z"/>
	<path d="M348.111,358.902c0.342,0.018,0.738,0,1.278-0.072c0.918-0.108,1.782-0.486,2.448-1.134
		c0.774-0.702,1.332-1.729,1.548-3.114h-0.054c-0.648,0.792-1.584,1.26-2.772,1.26c-2.106,0-3.456-1.584-3.456-3.6
		c0-2.196,1.62-4.141,4.014-4.141s3.87,1.927,3.87,4.933c0,2.574-0.864,4.374-2.016,5.508c-0.9,0.864-2.142,1.422-3.402,1.566
		c-0.576,0.071-1.098,0.107-1.458,0.09V358.902z M350.973,349.308c-1.332,0-2.286,1.188-2.286,2.845c0,1.458,0.882,2.483,2.25,2.483
		c1.062,0,1.89-0.521,2.322-1.224c0.072-0.145,0.126-0.324,0.126-0.576c0.018-2.016-0.738-3.528-2.394-3.528H350.973z"/>
	<path d="M360.225,355.284c-1.278,0-1.458,0.773-1.458,1.35c0,0.468,0.072,0.954,0.144,1.44c0.072,0.485,0.144,0.99,0.144,1.476
		c0,1.818-1.134,2.466-2.61,2.466h-0.378v-0.989h0.306c1.008-0.019,1.44-0.559,1.44-1.566c0-0.432-0.072-0.846-0.126-1.296
		c-0.072-0.432-0.144-0.882-0.144-1.368c-0.018-1.152,0.504-1.764,1.296-1.962v-0.036c-0.792-0.216-1.314-0.792-1.296-1.944
		c0-0.485,0.072-0.918,0.144-1.367c0.054-0.433,0.126-0.864,0.126-1.278c0-0.972-0.378-1.53-1.44-1.548h-0.306v-0.99h0.36
		c1.53,0,2.628,0.702,2.628,2.358c0,0.485-0.072,0.989-0.144,1.493c-0.072,0.505-0.144,1.009-0.144,1.513
		c0,0.63,0.18,1.332,1.458,1.332V355.284z"/>
	<path d="M330.514,372.366c1.278,0,1.458-0.702,1.458-1.332c0-0.504-0.072-1.008-0.144-1.513c-0.072-0.504-0.144-1.008-0.144-1.493
		c0-1.656,1.098-2.358,2.628-2.358h0.36v0.99h-0.306c-1.062,0.018-1.44,0.576-1.44,1.548c0,0.414,0.072,0.846,0.126,1.278
		c0.072,0.449,0.144,0.882,0.144,1.367c0.018,1.152-0.504,1.729-1.296,1.944v0.036c0.792,0.198,1.314,0.81,1.296,1.962
		c0,0.486-0.072,0.937-0.144,1.368c-0.054,0.45-0.126,0.864-0.126,1.296c0,1.008,0.432,1.548,1.44,1.566h0.306v0.989h-0.378
		c-1.476,0-2.61-0.647-2.61-2.466c0-0.485,0.072-0.99,0.162-1.476c0.054-0.486,0.126-0.973,0.126-1.44c0-0.576-0.18-1.35-1.458-1.35
		V372.366z"/>
	<path d="M342.646,377.694c-0.414,0.197-1.332,0.504-2.502,0.504c-2.628,0-4.338-1.782-4.338-4.464c0-2.683,1.836-4.645,4.68-4.645
		c0.936,0,1.764,0.234,2.196,0.468l-0.36,1.206c-0.378-0.197-0.972-0.414-1.836-0.414c-1.998,0-3.078,1.494-3.078,3.312
		c0,2.016,1.296,3.258,3.024,3.258c0.9,0,1.494-0.216,1.944-0.414L342.646,377.694z"/>
	<path d="M343.206,380.232c0.396-1.08,0.882-3.007,1.08-4.32l1.764-0.18c-0.432,1.529-1.224,3.527-1.728,4.374L343.206,380.232z"/>
	<path d="M351.503,378.198c-2.34,0-4.176-1.729-4.176-4.482c0-2.916,1.926-4.626,4.32-4.626c2.502,0,4.194,1.818,4.194,4.464
		c0,3.24-2.25,4.645-4.32,4.645H351.503z M351.558,377.01c1.512,0,2.646-1.422,2.646-3.401c0-1.477-0.738-3.33-2.61-3.33
		c-1.854,0-2.664,1.728-2.664,3.384c0,1.908,1.08,3.348,2.61,3.348H351.558z"/>
	<path d="M356.312,380.232c0.396-1.08,0.882-3.007,1.08-4.32l1.764-0.18c-0.432,1.529-1.224,3.527-1.728,4.374L356.312,380.232z"/>
	<path d="M360.848,376.398c0.486,0.287,1.314,0.611,2.106,0.611c1.134,0,1.674-0.558,1.674-1.296c0-0.756-0.45-1.17-1.602-1.602
		c-1.584-0.576-2.322-1.422-2.322-2.467c0-1.403,1.152-2.556,3.006-2.556c0.882,0,1.656,0.234,2.124,0.54l-0.378,1.134
		c-0.342-0.197-0.972-0.504-1.782-0.504c-0.936,0-1.44,0.54-1.44,1.188c0,0.737,0.504,1.062,1.638,1.494
		c1.494,0.558,2.286,1.313,2.286,2.628c0,1.548-1.206,2.628-3.24,2.628c-0.954,0-1.836-0.252-2.448-0.612L360.848,376.398z"/>
	<path d="M371.486,373.284c-1.278,0-1.458,0.773-1.458,1.35c0,0.468,0.072,0.954,0.144,1.44c0.072,0.485,0.144,0.99,0.144,1.476
		c0,1.818-1.134,2.466-2.61,2.466h-0.378v-0.989h0.306c1.008-0.019,1.44-0.559,1.44-1.566c0-0.432-0.072-0.846-0.126-1.296
		c-0.072-0.432-0.144-0.882-0.144-1.368c-0.018-1.152,0.504-1.764,1.296-1.962v-0.036c-0.792-0.216-1.314-0.792-1.296-1.944
		c0-0.485,0.072-0.918,0.144-1.367c0.054-0.433,0.126-0.864,0.126-1.278c0-0.972-0.378-1.53-1.44-1.548h-0.306v-0.99h0.36
		c1.53,0,2.628,0.702,2.628,2.358c0,0.485-0.072,0.989-0.144,1.493c-0.072,0.505-0.144,1.009-0.144,1.513
		c0,0.63,0.18,1.332,1.458,1.332V373.284z"/>
</g>
<g>
	<path d="M610.336,138.366c1.278,0,1.458-0.702,1.458-1.332c0-0.504-0.072-1.008-0.144-1.512c-0.072-0.504-0.145-1.008-0.145-1.494
		c0-1.656,1.098-2.358,2.628-2.358h0.36v0.99h-0.306c-1.062,0.018-1.44,0.576-1.44,1.548c0,0.414,0.072,0.846,0.126,1.278
		c0.072,0.45,0.144,0.882,0.144,1.368c0.019,1.152-0.504,1.728-1.296,1.944v0.036c0.792,0.198,1.314,0.81,1.296,1.962
		c0,0.486-0.071,0.936-0.144,1.368c-0.054,0.45-0.126,0.864-0.126,1.296c0,1.008,0.432,1.548,1.44,1.566h0.306v0.99h-0.378
		c-1.477,0-2.61-0.648-2.61-2.466c0-0.486,0.072-0.99,0.162-1.476c0.054-0.486,0.126-0.972,0.126-1.44c0-0.576-0.18-1.35-1.458-1.35
		V138.366z"/>
	<path d="M615.754,144v-0.972l1.242-1.206c2.988-2.844,4.355-4.356,4.355-6.12c0-1.188-0.558-2.286-2.304-2.286
		c-1.062,0-1.944,0.54-2.484,0.99l-0.504-1.116c0.792-0.666,1.962-1.188,3.312-1.188c2.502,0,3.563,1.728,3.563,3.402
		c0,2.16-1.565,3.906-4.031,6.282l-0.918,0.864v0.036h5.237V144H615.754z"/>
	<path d="M624.466,146.232c0.396-1.08,0.882-3.006,1.08-4.32l1.764-0.18c-0.432,1.53-1.224,3.528-1.728,4.374L624.466,146.232z"/>
	<path d="M629.092,142.2c0.449,0.27,1.476,0.72,2.592,0.72c2.016,0,2.664-1.278,2.646-2.268c-0.018-1.638-1.494-2.34-3.023-2.34
		h-0.882v-1.188h0.882c1.151,0,2.609-0.594,2.609-1.98c0-0.936-0.594-1.764-2.052-1.764c-0.936,0-1.836,0.414-2.34,0.774
		l-0.432-1.152c0.63-0.45,1.817-0.9,3.077-0.9c2.305,0,3.349,1.368,3.349,2.79c0,1.224-0.738,2.25-2.16,2.772v0.036
		c1.44,0.27,2.61,1.35,2.61,2.988c0,1.872-1.477,3.51-4.267,3.51c-1.313,0-2.466-0.414-3.042-0.792L629.092,142.2z"/>
	<path d="M637.425,146.232c0.396-1.08,0.882-3.006,1.08-4.32l1.765-0.18c-0.433,1.53-1.225,3.528-1.729,4.374L637.425,146.232z"/>
	<path d="M648.657,133.632h-4.464l-0.45,2.97c0.27-0.036,0.521-0.072,0.954-0.072c0.918,0,1.8,0.198,2.52,0.63
		c0.918,0.504,1.674,1.53,1.674,3.042c0,2.286-1.817,3.996-4.355,3.996c-1.278,0-2.34-0.36-2.916-0.72l0.396-1.206
		c0.486,0.288,1.44,0.648,2.521,0.648c1.476,0,2.771-0.972,2.754-2.556c0-1.548-1.026-2.61-3.349-2.61
		c-0.684,0-1.205,0.054-1.638,0.126l0.756-5.58h5.599V133.632z"/>
	<path d="M650.385,146.232c0.396-1.08,0.882-3.006,1.08-4.32l1.764-0.18c-0.432,1.53-1.224,3.528-1.728,4.374L650.385,146.232z"/>
	<path d="M662.229,132.3v1.044L657.135,144h-1.62l5.058-10.35v-0.036h-5.724V132.3H662.229z"/>
	<path d="M667.664,139.284c-1.278,0-1.458,0.774-1.458,1.35c0,0.468,0.072,0.954,0.144,1.44c0.072,0.486,0.145,0.99,0.145,1.476
		c0,1.818-1.134,2.466-2.61,2.466h-0.378v-0.99h0.307c1.008-0.018,1.439-0.558,1.439-1.566c0-0.432-0.072-0.846-0.126-1.296
		c-0.072-0.432-0.144-0.882-0.144-1.368c-0.019-1.152,0.504-1.764,1.296-1.962v-0.036c-0.792-0.216-1.314-0.792-1.296-1.944
		c0-0.486,0.071-0.918,0.144-1.368c0.054-0.432,0.126-0.864,0.126-1.278c0-0.972-0.378-1.53-1.439-1.548h-0.307v-0.99h0.36
		c1.53,0,2.628,0.702,2.628,2.358c0,0.486-0.072,0.99-0.145,1.494c-0.071,0.504-0.144,1.008-0.144,1.512
		c0,0.63,0.18,1.332,1.458,1.332V139.284z"/>
	<path d="M629.271,156.366c1.277,0,1.458-0.702,1.458-1.332c0-0.504-0.072-1.008-0.145-1.512c-0.071-0.504-0.144-1.008-0.144-1.494
		c0-1.656,1.098-2.358,2.628-2.358h0.36v0.99h-0.307c-1.062,0.018-1.439,0.576-1.439,1.548c0,0.414,0.071,0.846,0.126,1.278
		c0.071,0.45,0.144,0.882,0.144,1.368c0.019,1.152-0.504,1.728-1.296,1.944v0.036c0.792,0.198,1.314,0.81,1.296,1.962
		c0,0.486-0.072,0.936-0.144,1.368c-0.055,0.45-0.126,0.864-0.126,1.296c0,1.008,0.432,1.548,1.439,1.566h0.307v0.99h-0.379
		c-1.476,0-2.609-0.648-2.609-2.466c0-0.486,0.072-0.99,0.162-1.476c0.054-0.486,0.126-0.972,0.126-1.44
		c0-0.576-0.181-1.35-1.458-1.35V156.366z"/>
	<path d="M635.193,156.132c0-1.116-0.019-2.016-0.072-2.844h1.422l0.09,1.494h0.036c0.63-1.08,1.674-1.692,3.078-1.692
		c2.124,0,3.708,1.782,3.708,4.428c0,3.132-1.926,4.68-3.96,4.68c-1.17,0-2.16-0.504-2.682-1.368h-0.036v4.734h-1.584V156.132z
		 M636.777,158.454c0,0.216,0.018,0.45,0.072,0.648c0.27,1.098,1.241,1.854,2.357,1.854c1.674,0,2.646-1.368,2.646-3.366
		c0-1.746-0.9-3.24-2.574-3.24c-1.08,0-2.106,0.756-2.412,1.944c-0.036,0.216-0.09,0.45-0.09,0.648V158.454z"/>
	<path d="M648.729,157.284c-1.277,0-1.458,0.774-1.458,1.35c0,0.468,0.072,0.954,0.145,1.44c0.072,0.486,0.144,0.99,0.144,1.476
		c0,1.818-1.134,2.466-2.609,2.466h-0.378v-0.99h0.306c1.008-0.018,1.439-0.558,1.439-1.566c0-0.432-0.071-0.846-0.126-1.296
		c-0.071-0.432-0.144-0.882-0.144-1.368c-0.018-1.152,0.504-1.764,1.296-1.962v-0.036c-0.792-0.216-1.313-0.792-1.296-1.944
		c0-0.486,0.072-0.918,0.144-1.368c0.055-0.432,0.126-0.864,0.126-1.278c0-0.972-0.378-1.53-1.439-1.548h-0.306v-0.99h0.359
		c1.53,0,2.628,0.702,2.628,2.358c0,0.486-0.071,0.99-0.144,1.494s-0.145,1.008-0.145,1.512c0,0.63,0.181,1.332,1.458,1.332V157.284
		z"/>
</g>
<g>
	<path d="M191.295,246.366c1.278,0,1.458-0.702,1.458-1.332c0-0.504-0.072-1.008-0.144-1.512c-0.072-0.504-0.144-1.008-0.144-1.494
		c0-1.656,1.098-2.358,2.628-2.358h0.36v0.99h-0.306c-1.062,0.018-1.44,0.576-1.44,1.548c0,0.414,0.072,0.846,0.126,1.278
		c0.072,0.45,0.144,0.882,0.144,1.368c0.018,1.152-0.504,1.728-1.296,1.944v0.036c0.792,0.198,1.314,0.81,1.296,1.962
		c0,0.486-0.072,0.936-0.144,1.368c-0.054,0.45-0.126,0.864-0.126,1.296c0,1.008,0.432,1.548,1.44,1.566h0.306v0.99h-0.378
		c-1.476,0-2.61-0.648-2.61-2.466c0-0.486,0.072-0.99,0.162-1.476c0.054-0.486,0.126-0.972,0.126-1.44c0-0.576-0.18-1.35-1.458-1.35
		V246.366z"/>
	<path d="M201.609,252v-3.186h-5.436v-1.026l5.22-7.488h1.71v7.29h1.638v1.224h-1.638V252H201.609z M201.609,247.59v-3.924
		c0-0.612,0.018-1.224,0.054-1.836h-0.054c-0.36,0.684-0.648,1.188-0.972,1.746l-2.862,3.978v0.036H201.609z"/>
	<path d="M205.425,254.232c0.396-1.08,0.882-3.006,1.08-4.32l1.764-0.18c-0.432,1.53-1.224,3.528-1.728,4.374L205.425,254.232z"/>
	<path d="M210.591,250.902c0.342,0.018,0.738,0,1.278-0.072c0.918-0.108,1.782-0.486,2.448-1.134
		c0.774-0.702,1.332-1.728,1.548-3.114h-0.054c-0.648,0.792-1.584,1.26-2.772,1.26c-2.106,0-3.456-1.584-3.456-3.6
		c0-2.196,1.62-4.14,4.014-4.14c2.394,0,3.87,1.926,3.87,4.932c0,2.574-0.864,4.374-2.016,5.508c-0.9,0.864-2.142,1.422-3.402,1.566
		c-0.576,0.072-1.098,0.108-1.458,0.09V250.902z M213.453,241.308c-1.332,0-2.286,1.188-2.286,2.844c0,1.458,0.882,2.484,2.25,2.484
		c1.062,0,1.89-0.522,2.322-1.224c0.072-0.144,0.126-0.324,0.126-0.576c0.018-2.016-0.738-3.528-2.394-3.528H213.453z"/>
	<path d="M222.705,247.284c-1.278,0-1.458,0.774-1.458,1.35c0,0.468,0.072,0.954,0.144,1.44c0.072,0.486,0.144,0.99,0.144,1.476
		c0,1.818-1.134,2.466-2.61,2.466h-0.378v-0.99h0.306c1.008-0.018,1.44-0.558,1.44-1.566c0-0.432-0.072-0.846-0.126-1.296
		c-0.072-0.432-0.144-0.882-0.144-1.368c-0.018-1.152,0.504-1.764,1.296-1.962v-0.036c-0.792-0.216-1.314-0.792-1.296-1.944
		c0-0.486,0.072-0.918,0.144-1.368c0.054-0.432,0.126-0.864,0.126-1.278c0-0.972-0.378-1.53-1.44-1.548h-0.306v-0.99h0.36
		c1.53,0,2.628,0.702,2.628,2.358c0,0.486-0.072,0.99-0.144,1.494s-0.144,1.008-0.144,1.512c0,0.63,0.18,1.332,1.458,1.332V247.284z
		"/>
	<path d="M193.067,264.366c1.278,0,1.458-0.702,1.458-1.332c0-0.504-0.072-1.008-0.144-1.512c-0.072-0.504-0.144-1.008-0.144-1.494
		c0-1.656,1.098-2.358,2.628-2.358h0.36v0.99h-0.306c-1.062,0.018-1.44,0.576-1.44,1.548c0,0.414,0.072,0.846,0.126,1.278
		c0.072,0.45,0.144,0.882,0.144,1.368c0.018,1.152-0.504,1.728-1.296,1.944v0.036c0.792,0.198,1.314,0.81,1.296,1.962
		c0,0.486-0.072,0.936-0.144,1.368c-0.054,0.45-0.126,0.864-0.126,1.296c0,1.008,0.432,1.548,1.44,1.566h0.306v0.989h-0.378
		c-1.476,0-2.61-0.647-2.61-2.466c0-0.486,0.072-0.99,0.162-1.476c0.054-0.486,0.126-0.972,0.126-1.44c0-0.576-0.18-1.35-1.458-1.35
		V264.366z"/>
	<path d="M205.199,269.694c-0.414,0.198-1.332,0.504-2.502,0.504c-2.628,0-4.338-1.782-4.338-4.464s1.836-4.644,4.68-4.644
		c0.936,0,1.764,0.234,2.196,0.468l-0.36,1.206c-0.378-0.198-0.972-0.414-1.836-0.414c-1.998,0-3.078,1.494-3.078,3.312
		c0,2.016,1.296,3.258,3.024,3.258c0.9,0,1.494-0.216,1.944-0.414L205.199,269.694z"/>
	<path d="M205.759,272.232c0.396-1.08,0.882-3.006,1.08-4.32l1.764-0.18c-0.432,1.53-1.224,3.528-1.728,4.375L205.759,272.232z"/>
	<path d="M210.295,268.398c0.486,0.288,1.314,0.612,2.106,0.612c1.134,0,1.674-0.558,1.674-1.296c0-0.756-0.45-1.17-1.602-1.602
		c-1.584-0.576-2.322-1.422-2.322-2.466c0-1.404,1.152-2.556,3.006-2.556c0.882,0,1.656,0.234,2.124,0.54l-0.378,1.134
		c-0.342-0.198-0.972-0.504-1.782-0.504c-0.936,0-1.44,0.54-1.44,1.188c0,0.738,0.504,1.062,1.638,1.494
		c1.494,0.558,2.286,1.314,2.286,2.628c0,1.548-1.206,2.628-3.24,2.628c-0.954,0-1.836-0.252-2.448-0.612L210.295,268.398z"/>
	<path d="M220.933,265.284c-1.278,0-1.458,0.774-1.458,1.35c0,0.468,0.072,0.954,0.144,1.44c0.072,0.486,0.144,0.99,0.144,1.476
		c0,1.818-1.134,2.466-2.61,2.466h-0.378v-0.989h0.306c1.008-0.019,1.44-0.559,1.44-1.566c0-0.432-0.072-0.846-0.126-1.296
		c-0.072-0.432-0.144-0.882-0.144-1.368c-0.018-1.152,0.504-1.764,1.296-1.962v-0.036c-0.792-0.216-1.314-0.792-1.296-1.944
		c0-0.486,0.072-0.918,0.144-1.368c0.054-0.432,0.126-0.864,0.126-1.278c0-0.972-0.378-1.53-1.44-1.548h-0.306v-0.99h0.36
		c1.53,0,2.628,0.702,2.628,2.358c0,0.486-0.072,0.99-0.144,1.494c-0.072,0.504-0.144,1.008-0.144,1.512
		c0,0.63,0.18,1.332,1.458,1.332V265.284z"/>
</g>
<g>
	<path d="M184.816,138.366c1.278,0,1.458-0.702,1.458-1.332c0-0.504-0.072-1.008-0.144-1.512c-0.072-0.504-0.144-1.008-0.144-1.494
		c0-1.656,1.098-2.358,2.628-2.358h0.36v0.99h-0.306c-1.062,0.018-1.44,0.576-1.44,1.548c0,0.414,0.072,0.846,0.126,1.278
		c0.072,0.45,0.144,0.882,0.144,1.368c0.018,1.152-0.504,1.728-1.296,1.944v0.036c0.792,0.198,1.314,0.81,1.296,1.962
		c0,0.486-0.072,0.936-0.144,1.368c-0.054,0.45-0.126,0.864-0.126,1.296c0,1.008,0.432,1.548,1.44,1.566h0.306v0.99h-0.378
		c-1.476,0-2.61-0.648-2.61-2.466c0-0.486,0.072-0.99,0.162-1.476c0.054-0.486,0.126-0.972,0.126-1.44c0-0.576-0.18-1.35-1.458-1.35
		V138.366z"/>
	<path d="M193.672,133.776h-0.036l-2.034,1.098l-0.306-1.206l2.556-1.368h1.35V144h-1.53V133.776z"/>
	<path d="M198.945,146.232c0.396-1.08,0.882-3.006,1.08-4.32l1.764-0.18c-0.432,1.53-1.224,3.528-1.728,4.374L198.945,146.232z"/>
	<path d="M208.089,144v-3.186h-5.436v-1.026l5.22-7.488h1.71v7.29h1.638v1.224h-1.638V144H208.089z M208.089,139.59v-3.924
		c0-0.612,0.018-1.224,0.054-1.836h-0.054c-0.36,0.684-0.648,1.188-0.972,1.746l-2.862,3.978v0.036H208.089z"/>
	<path d="M211.905,146.232c0.396-1.08,0.882-3.006,1.08-4.32l1.764-0.18c-0.432,1.53-1.224,3.528-1.728,4.374L211.905,146.232z"/>
	<path d="M217.071,142.902c0.342,0.018,0.738,0,1.278-0.072c0.918-0.108,1.782-0.486,2.448-1.134
		c0.774-0.702,1.332-1.728,1.548-3.114h-0.054c-0.648,0.792-1.584,1.26-2.772,1.26c-2.106,0-3.456-1.584-3.456-3.6
		c0-2.196,1.62-4.14,4.014-4.14s3.87,1.926,3.87,4.932c0,2.574-0.864,4.374-2.016,5.508c-0.9,0.864-2.142,1.422-3.402,1.566
		c-0.576,0.072-1.098,0.108-1.458,0.09V142.902z M219.933,133.308c-1.332,0-2.286,1.188-2.286,2.844c0,1.458,0.882,2.484,2.25,2.484
		c1.062,0,1.89-0.522,2.322-1.224c0.072-0.144,0.126-0.324,0.126-0.576c0.018-2.016-0.738-3.528-2.394-3.528H219.933z"/>
	<path d="M229.185,139.284c-1.278,0-1.458,0.774-1.458,1.35c0,0.468,0.072,0.954,0.144,1.44c0.072,0.486,0.144,0.99,0.144,1.476
		c0,1.818-1.134,2.466-2.61,2.466h-0.378v-0.99h0.306c1.008-0.018,1.44-0.558,1.44-1.566c0-0.432-0.072-0.846-0.126-1.296
		c-0.072-0.432-0.144-0.882-0.144-1.368c-0.018-1.152,0.504-1.764,1.296-1.962v-0.036c-0.792-0.216-1.314-0.792-1.296-1.944
		c0-0.486,0.072-0.918,0.144-1.368c0.054-0.432,0.126-0.864,0.126-1.278c0-0.972-0.378-1.53-1.44-1.548h-0.306v-0.99h0.36
		c1.53,0,2.628,0.702,2.628,2.358c0,0.486-0.072,0.99-0.144,1.494c-0.072,0.504-0.144,1.008-0.144,1.512
		c0,0.63,0.18,1.332,1.458,1.332V139.284z"/>
	<path d="M198.828,156.366c1.278,0,1.458-0.702,1.458-1.332c0-0.504-0.072-1.008-0.144-1.512s-0.144-1.008-0.144-1.494
		c0-1.656,1.098-2.358,2.628-2.358h0.36v0.99h-0.306c-1.062,0.018-1.44,0.576-1.44,1.548c0,0.414,0.072,0.846,0.126,1.278
		c0.072,0.45,0.144,0.882,0.144,1.368c0.018,1.152-0.504,1.728-1.296,1.944v0.036c0.792,0.198,1.314,0.81,1.296,1.962
		c0,0.486-0.072,0.936-0.144,1.368c-0.054,0.45-0.126,0.864-0.126,1.296c0,1.008,0.432,1.548,1.44,1.566h0.306v0.99h-0.378
		c-1.476,0-2.61-0.648-2.61-2.466c0-0.486,0.072-0.99,0.162-1.476c0.054-0.486,0.126-0.972,0.126-1.44c0-0.576-0.18-1.35-1.458-1.35
		V156.366z"/>
	<path d="M204.534,160.398c0.486,0.288,1.314,0.612,2.106,0.612c1.134,0,1.674-0.558,1.674-1.296c0-0.756-0.45-1.17-1.602-1.602
		c-1.584-0.576-2.322-1.422-2.322-2.466c0-1.404,1.152-2.556,3.006-2.556c0.882,0,1.656,0.234,2.124,0.54l-0.378,1.134
		c-0.342-0.198-0.972-0.504-1.782-0.504c-0.936,0-1.44,0.54-1.44,1.188c0,0.738,0.504,1.062,1.638,1.494
		c1.494,0.558,2.286,1.314,2.286,2.628c0,1.548-1.206,2.628-3.24,2.628c-0.954,0-1.836-0.252-2.448-0.612L204.534,160.398z"/>
	<path d="M215.172,157.284c-1.278,0-1.458,0.774-1.458,1.35c0,0.468,0.072,0.954,0.144,1.44c0.072,0.486,0.144,0.99,0.144,1.476
		c0,1.818-1.134,2.466-2.61,2.466h-0.378v-0.99h0.306c1.008-0.018,1.44-0.558,1.44-1.566c0-0.432-0.072-0.846-0.126-1.296
		c-0.072-0.432-0.144-0.882-0.144-1.368c-0.018-1.152,0.504-1.764,1.296-1.962v-0.036c-0.792-0.216-1.314-0.792-1.296-1.944
		c0-0.486,0.072-0.918,0.144-1.368c0.054-0.432,0.126-0.864,0.126-1.278c0-0.972-0.378-1.53-1.44-1.548h-0.306v-0.99h0.36
		c1.53,0,2.628,0.702,2.628,2.358c0,0.486-0.072,0.99-0.144,1.494c-0.072,0.504-0.144,1.008-0.144,1.512
		c0,0.63,0.18,1.332,1.458,1.332V157.284z"/>
</g>
<g>
	<path d="M23.239,138.366c1.278,0,1.458-0.702,1.458-1.332c0-0.504-0.072-1.008-0.144-1.512c-0.072-0.504-0.144-1.008-0.144-1.494
		c0-1.656,1.098-2.358,2.628-2.358h0.36v0.99h-0.306c-1.062,0.018-1.44,0.576-1.44,1.548c0,0.414,0.072,0.846,0.126,1.278
		c0.072,0.45,0.144,0.882,0.144,1.368c0.018,1.152-0.504,1.728-1.296,1.944v0.036c0.792,0.198,1.314,0.81,1.296,1.962
		c0,0.486-0.072,0.936-0.144,1.368c-0.054,0.45-0.126,0.864-0.126,1.296c0,1.008,0.432,1.548,1.44,1.566h0.306v0.99H27.02
		c-1.476,0-2.61-0.648-2.61-2.466c0-0.486,0.072-0.99,0.162-1.476c0.054-0.486,0.126-0.972,0.126-1.44c0-0.576-0.18-1.35-1.458-1.35
		V138.366z"/>
	<path d="M33.553,144v-3.186h-5.436v-1.026l5.22-7.488h1.71v7.29h1.638v1.224h-1.638V144H33.553z M33.553,139.59v-3.924
		c0-0.612,0.018-1.224,0.054-1.836h-0.054c-0.36,0.684-0.648,1.188-0.972,1.746l-2.862,3.978v0.036H33.553z"/>
	<path d="M37.369,146.232c0.396-1.08,0.882-3.006,1.08-4.32l1.764-0.18c-0.432,1.53-1.224,3.528-1.728,4.374L37.369,146.232z"/>
	<path d="M48.295,133.398c-0.324-0.018-0.738,0.018-1.188,0.09c-2.502,0.396-3.798,2.214-4.068,4.158h0.036
		c0.558-0.756,1.548-1.368,2.844-1.368c2.07,0,3.528,1.512,3.528,3.78c0,2.16-1.458,4.14-3.906,4.14
		c-2.484,0-4.122-1.944-4.122-4.986c0-2.304,0.81-4.122,1.98-5.292c0.972-0.954,2.268-1.548,3.744-1.728
		c0.468-0.072,0.864-0.09,1.152-0.09V133.398z M45.577,142.974c1.35,0,2.268-1.134,2.268-2.808s-0.954-2.682-2.412-2.682
		c-0.954,0-1.854,0.576-2.286,1.44c-0.09,0.18-0.162,0.396-0.162,0.684c0.018,1.926,0.918,3.366,2.574,3.366H45.577z"/>
	<path d="M50.329,146.232c0.396-1.08,0.882-3.006,1.08-4.32l1.764-0.18c-0.432,1.53-1.224,3.528-1.728,4.374L50.329,146.232z"/>
	<path d="M58.5,132.102c2.268,0,3.42,1.404,3.42,2.88c0,0.99-0.504,2.07-1.944,2.736v0.054c1.458,0.576,2.358,1.62,2.358,3.024
		c0,2.052-1.746,3.402-3.978,3.402c-2.448,0-3.924-1.44-3.924-3.15c0-1.476,0.882-2.538,2.304-3.15v-0.054
		c-1.314-0.612-1.872-1.62-1.872-2.628c0-1.854,1.566-3.114,3.618-3.114H58.5z M58.41,143.046c1.422,0,2.34-0.882,2.34-2.088
		c0-1.404-0.99-2.106-2.574-2.556c-1.368,0.396-2.106,1.314-2.106,2.43c-0.054,1.17,0.846,2.214,2.322,2.214H58.41z M58.446,133.236
		c-1.314,0-2.034,0.864-2.034,1.872c-0.018,1.17,0.882,1.8,2.232,2.16c1.008-0.342,1.782-1.062,1.782-2.124
		c0-0.936-0.558-1.908-1.962-1.908H58.446z"/>
	<path d="M63.288,146.232c0.396-1.08,0.882-3.006,1.08-4.32l1.764-0.18c-0.432,1.53-1.224,3.528-1.728,4.374L63.288,146.232z"/>
	<path d="M68.454,142.902c0.342,0.018,0.738,0,1.278-0.072c0.918-0.108,1.782-0.486,2.448-1.134
		c0.774-0.702,1.332-1.728,1.548-3.114h-0.054c-0.648,0.792-1.584,1.26-2.772,1.26c-2.106,0-3.456-1.584-3.456-3.6
		c0-2.196,1.62-4.14,4.014-4.14s3.87,1.926,3.87,4.932c0,2.574-0.864,4.374-2.016,5.508c-0.9,0.864-2.142,1.422-3.402,1.566
		c-0.576,0.072-1.098,0.108-1.458,0.09V142.902z M71.316,133.308c-1.332,0-2.286,1.188-2.286,2.844c0,1.458,0.882,2.484,2.25,2.484
		c1.062,0,1.89-0.522,2.322-1.224c0.072-0.144,0.126-0.324,0.126-0.576c0.018-2.016-0.738-3.528-2.394-3.528H71.316z"/>
	<path d="M76.248,146.232c0.396-1.08,0.882-3.006,1.08-4.32l1.764-0.18c-0.432,1.53-1.224,3.528-1.728,4.374L76.248,146.232z"/>
	<path d="M83.933,133.776h-0.036l-2.034,1.098l-0.306-1.206l2.556-1.368h1.35V144h-1.53V133.776z"/>
	<path d="M93.455,144.198c-2.286,0-3.852-2.142-3.888-6.012c0-3.942,1.71-6.084,4.086-6.084c2.448,0,3.87,2.196,3.87,5.922
		c0,3.978-1.494,6.174-4.05,6.174H93.455z M93.527,142.974c1.602,0,2.376-1.89,2.376-4.878c0-2.88-0.72-4.77-2.376-4.77
		c-1.44,0-2.376,1.836-2.376,4.77c-0.036,3.042,0.9,4.878,2.358,4.878H93.527z"/>
	<path d="M102.761,139.284c-1.278,0-1.458,0.774-1.458,1.35c0,0.468,0.072,0.954,0.144,1.44c0.072,0.486,0.144,0.99,0.144,1.476
		c0,1.818-1.134,2.466-2.61,2.466h-0.378v-0.99h0.306c1.008-0.018,1.44-0.558,1.44-1.566c0-0.432-0.072-0.846-0.126-1.296
		c-0.072-0.432-0.144-0.882-0.144-1.368c-0.018-1.152,0.504-1.764,1.296-1.962v-0.036c-0.792-0.216-1.314-0.792-1.296-1.944
		c0-0.486,0.072-0.918,0.144-1.368c0.054-0.432,0.126-0.864,0.126-1.278c0-0.972-0.378-1.53-1.44-1.548h-0.306v-0.99h0.36
		c1.53,0,2.628,0.702,2.628,2.358c0,0.486-0.072,0.99-0.144,1.494c-0.072,0.504-0.144,1.008-0.144,1.512
		c0,0.63,0.18,1.332,1.458,1.332V139.284z"/>
	<path d="M54.36,156.366c1.278,0,1.458-0.702,1.458-1.332c0-0.504-0.072-1.008-0.144-1.512c-0.072-0.504-0.144-1.008-0.144-1.494
		c0-1.656,1.098-2.358,2.628-2.358h0.36v0.99h-0.306c-1.062,0.018-1.44,0.576-1.44,1.548c0,0.414,0.072,0.846,0.126,1.278
		c0.072,0.45,0.144,0.882,0.144,1.368c0.018,1.152-0.504,1.728-1.296,1.944v0.036c0.792,0.198,1.314,0.81,1.296,1.962
		c0,0.486-0.072,0.936-0.144,1.368c-0.054,0.45-0.126,0.864-0.126,1.296c0,1.008,0.432,1.548,1.44,1.566h0.306v0.99H58.14
		c-1.476,0-2.61-0.648-2.61-2.466c0-0.486,0.072-0.99,0.162-1.476c0.054-0.486,0.126-0.972,0.126-1.44c0-0.576-0.18-1.35-1.458-1.35
		V156.366z"/>
	<path d="M66.492,161.694c-0.414,0.198-1.332,0.504-2.502,0.504c-2.628,0-4.338-1.782-4.338-4.464s1.836-4.644,4.68-4.644
		c0.936,0,1.764,0.234,2.196,0.468l-0.36,1.206c-0.378-0.198-0.972-0.414-1.836-0.414c-1.998,0-3.078,1.494-3.078,3.312
		c0,2.016,1.296,3.258,3.024,3.258c0.9,0,1.494-0.216,1.944-0.414L66.492,161.694z"/>
	<path d="M71.64,157.284c-1.278,0-1.458,0.774-1.458,1.35c0,0.468,0.072,0.954,0.144,1.44c0.072,0.486,0.144,0.99,0.144,1.476
		c0,1.818-1.134,2.466-2.61,2.466h-0.378v-0.99h0.306c1.008-0.018,1.44-0.558,1.44-1.566c0-0.432-0.072-0.846-0.126-1.296
		c-0.072-0.432-0.144-0.882-0.144-1.368c-0.018-1.152,0.504-1.764,1.296-1.962v-0.036c-0.792-0.216-1.314-0.792-1.296-1.944
		c0-0.486,0.072-0.918,0.144-1.368c0.054-0.432,0.126-0.864,0.126-1.278c0-0.972-0.378-1.53-1.44-1.548h-0.306v-0.99h0.36
		c1.53,0,2.628,0.702,2.628,2.358c0,0.486-0.072,0.99-0.144,1.494c-0.072,0.504-0.144,1.008-0.144,1.512
		c0,0.63,0.18,1.332,1.458,1.332V157.284z"/>
</g>
<g>
	<path d="M278.841,30.366c1.278,0,1.458-0.702,1.458-1.332c0-0.504-0.072-1.008-0.144-1.512c-0.072-0.504-0.144-1.008-0.144-1.494
		c0-1.656,1.098-2.358,2.628-2.358h0.36v0.99h-0.306c-1.062,0.018-1.44,0.576-1.44,1.548c0,0.414,0.072,0.846,0.126,1.278
		c0.072,0.45,0.144,0.882,0.144,1.368c0.018,1.152-0.504,1.728-1.296,1.944v0.036c0.792,0.198,1.314,0.81,1.296,1.962
		c0,0.486-0.072,0.936-0.144,1.368c-0.054,0.45-0.126,0.864-0.126,1.296c0,1.008,0.432,1.548,1.44,1.566h0.306v0.99h-0.378
		c-1.476,0-2.61-0.648-2.61-2.466c0-0.486,0.072-0.99,0.162-1.476c0.054-0.486,0.126-0.972,0.126-1.44c0-0.576-0.18-1.35-1.458-1.35
		V30.366z"/>
	<path d="M287.697,25.776h-0.036l-2.034,1.098l-0.306-1.206l2.556-1.368h1.35V36h-1.53V25.776z"/>
	<path d="M292.97,38.232c0.396-1.08,0.882-3.006,1.08-4.32l1.764-0.18c-0.432,1.53-1.224,3.528-1.728,4.374L292.97,38.232z"/>
	<path d="M297.218,36v-0.972l1.242-1.206c2.988-2.844,4.356-4.356,4.356-6.12c0-1.188-0.558-2.286-2.304-2.286
		c-1.062,0-1.944,0.54-2.484,0.99l-0.504-1.116c0.792-0.666,1.962-1.188,3.312-1.188c2.502,0,3.564,1.728,3.564,3.402
		c0,2.16-1.566,3.906-4.032,6.282l-0.918,0.864v0.036h5.238V36H297.218z"/>
	<path d="M305.93,38.232c0.396-1.08,0.882-3.006,1.08-4.32l1.764-0.18c-0.432,1.53-1.224,3.528-1.728,4.374L305.93,38.232z"/>
	<path d="M310.556,34.2c0.45,0.27,1.476,0.72,2.592,0.72c2.016,0,2.664-1.278,2.646-2.268c-0.018-1.638-1.494-2.34-3.024-2.34
		h-0.882v-1.188h0.882c1.152,0,2.61-0.594,2.61-1.98c0-0.936-0.594-1.764-2.052-1.764c-0.936,0-1.836,0.414-2.34,0.774l-0.432-1.152
		c0.63-0.45,1.818-0.9,3.078-0.9c2.304,0,3.348,1.368,3.348,2.79c0,1.224-0.738,2.25-2.16,2.772V29.7
		c1.44,0.27,2.61,1.35,2.61,2.988c0,1.872-1.476,3.51-4.266,3.51c-1.314,0-2.466-0.414-3.042-0.792L310.556,34.2z"/>
	<path d="M318.889,38.232c0.396-1.08,0.882-3.006,1.08-4.32l1.764-0.18c-0.432,1.53-1.224,3.528-1.728,4.374L318.889,38.232z"/>
	<path d="M328.033,36v-3.186h-5.436v-1.026l5.22-7.488h1.71v7.29h1.638v1.224h-1.638V36H328.033z M328.033,31.59v-3.924
		c0-0.612,0.018-1.224,0.054-1.836h-0.054c-0.36,0.684-0.648,1.188-0.972,1.746l-2.862,3.978v0.036H328.033z"/>
	<path d="M331.849,38.232c0.396-1.08,0.882-3.006,1.08-4.32l1.764-0.18c-0.432,1.53-1.224,3.528-1.728,4.374L331.849,38.232z"/>
	<path d="M343.081,25.632h-4.464l-0.45,2.97c0.27-0.036,0.522-0.072,0.954-0.072c0.918,0,1.8,0.198,2.52,0.63
		c0.918,0.504,1.674,1.53,1.674,3.042c0,2.286-1.818,3.996-4.356,3.996c-1.278,0-2.34-0.36-2.916-0.72l0.396-1.206
		c0.486,0.288,1.44,0.648,2.52,0.648c1.476,0,2.772-0.972,2.754-2.556c0-1.548-1.026-2.61-3.348-2.61
		c-0.684,0-1.206,0.054-1.638,0.126l0.756-5.58h5.598V25.632z"/>
	<path d="M344.808,38.232c0.396-1.08,0.882-3.006,1.08-4.32l1.764-0.18c-0.432,1.53-1.224,3.528-1.728,4.374L344.808,38.232z"/>
	<path d="M355.734,25.398c-0.324-0.018-0.738,0.018-1.188,0.09c-2.502,0.396-3.798,2.214-4.068,4.158h0.036
		c0.558-0.756,1.548-1.368,2.844-1.368c2.07,0,3.528,1.512,3.528,3.78c0,2.16-1.458,4.14-3.906,4.14
		c-2.484,0-4.122-1.944-4.122-4.986c0-2.304,0.81-4.122,1.98-5.292c0.972-0.954,2.268-1.548,3.744-1.728
		c0.468-0.072,0.864-0.09,1.152-0.09V25.398z M353.016,34.974c1.35,0,2.268-1.134,2.268-2.808s-0.954-2.682-2.412-2.682
		c-0.954,0-1.854,0.576-2.286,1.44c-0.09,0.18-0.162,0.396-0.162,0.684c0.018,1.926,0.918,3.366,2.574,3.366H353.016z"/>
	<path d="M357.768,38.232c0.396-1.08,0.882-3.006,1.08-4.32l1.764-0.18c-0.432,1.53-1.224,3.528-1.728,4.374L357.768,38.232z"/>
	<path d="M369.611,24.3v1.044L364.518,36h-1.62l5.058-10.35v-0.036h-5.724V24.3H369.611z"/>
	<path d="M370.727,38.232c0.396-1.08,0.882-3.006,1.08-4.32l1.764-0.18c-0.432,1.53-1.224,3.528-1.728,4.374L370.727,38.232z"/>
	<path d="M378.899,24.102c2.268,0,3.42,1.404,3.42,2.88c0,0.99-0.504,2.07-1.944,2.736v0.054c1.458,0.576,2.358,1.62,2.358,3.024
		c0,2.052-1.746,3.402-3.978,3.402c-2.448,0-3.924-1.44-3.924-3.15c0-1.476,0.882-2.538,2.304-3.15v-0.054
		c-1.314-0.612-1.872-1.62-1.872-2.628c0-1.854,1.566-3.114,3.618-3.114H378.899z M378.809,35.046c1.422,0,2.34-0.882,2.34-2.088
		c0-1.404-0.99-2.106-2.574-2.556c-1.368,0.396-2.106,1.314-2.106,2.43c-0.054,1.17,0.846,2.214,2.322,2.214H378.809z
		 M378.845,25.236c-1.314,0-2.034,0.864-2.034,1.872c-0.018,1.17,0.882,1.8,2.232,2.16c1.008-0.342,1.782-1.062,1.782-2.124
		c0-0.936-0.558-1.908-1.962-1.908H378.845z"/>
	<path d="M383.687,38.232c0.396-1.08,0.882-3.006,1.08-4.32l1.764-0.18c-0.432,1.53-1.224,3.528-1.728,4.374L383.687,38.232z"/>
	<path d="M388.853,34.902c0.342,0.018,0.738,0,1.278-0.072c0.918-0.108,1.781-0.486,2.447-1.134
		c0.774-0.702,1.332-1.728,1.549-3.114h-0.055c-0.647,0.792-1.584,1.26-2.771,1.26c-2.106,0-3.457-1.584-3.457-3.6
		c0-2.196,1.621-4.14,4.014-4.14c2.395,0,3.87,1.926,3.87,4.932c0,2.574-0.864,4.374-2.016,5.508
		c-0.9,0.864-2.143,1.422-3.402,1.566c-0.576,0.072-1.098,0.108-1.458,0.09V34.902z M391.715,25.308
		c-1.332,0-2.286,1.188-2.286,2.844c0,1.458,0.882,2.484,2.25,2.484c1.062,0,1.89-0.522,2.321-1.224
		c0.072-0.144,0.127-0.324,0.127-0.576c0.018-2.016-0.738-3.528-2.395-3.528H391.715z"/>
	<path d="M396.646,38.232c0.396-1.08,0.882-3.006,1.08-4.32l1.764-0.18c-0.432,1.53-1.224,3.528-1.729,4.374L396.646,38.232z"/>
	<path d="M404.332,25.776h-0.036l-2.034,1.098l-0.306-1.206l2.556-1.368h1.351V36h-1.53V25.776z"/>
	<path d="M413.854,36.198c-2.286,0-3.852-2.142-3.888-6.012c0-3.942,1.71-6.084,4.086-6.084c2.448,0,3.87,2.196,3.87,5.922
		c0,3.978-1.494,6.174-4.05,6.174H413.854z M413.926,34.974c1.602,0,2.376-1.89,2.376-4.878c0-2.88-0.72-4.77-2.376-4.77
		c-1.44,0-2.376,1.836-2.376,4.77c-0.036,3.042,0.899,4.878,2.357,4.878H413.926z"/>
	<path d="M423.159,31.284c-1.277,0-1.458,0.774-1.458,1.35c0,0.468,0.072,0.954,0.145,1.44c0.071,0.486,0.144,0.99,0.144,1.476
		c0,1.818-1.134,2.466-2.61,2.466h-0.378v-0.99h0.307c1.008-0.018,1.439-0.558,1.439-1.566c0-0.432-0.071-0.846-0.126-1.296
		c-0.071-0.432-0.144-0.882-0.144-1.368c-0.019-1.152,0.504-1.764,1.296-1.962v-0.036c-0.792-0.216-1.314-0.792-1.296-1.944
		c0-0.486,0.072-0.918,0.144-1.368c0.055-0.432,0.126-0.864,0.126-1.278c0-0.972-0.378-1.53-1.439-1.548h-0.307v-0.99h0.36
		c1.53,0,2.628,0.702,2.628,2.358c0,0.486-0.072,0.99-0.144,1.494c-0.072,0.504-0.145,1.008-0.145,1.512
		c0,0.63,0.181,1.332,1.458,1.332V31.284z"/>
	<path d="M345.933,54.072l1.116-1.566c-1.008-1.098-1.602-2.682-1.602-4.5c0-3.834,2.412-6.336,5.598-6.336
		c1.116,0,2.16,0.324,3.024,0.954l1.062-1.458l0.954,0.648l-1.116,1.548c1.008,1.098,1.566,2.682,1.566,4.464
		c0,4.23-2.61,6.372-5.526,6.372c-1.134,0-2.196-0.342-3.06-0.972l-1.134,1.548L345.933,54.072z M353.295,43.776
		c-0.612-0.522-1.368-0.846-2.286-0.846c-2.628,0-3.96,2.448-3.96,5.004c0,1.332,0.342,2.322,0.882,3.24l0.036-0.018L353.295,43.776
		z M348.723,52.074c0.594,0.558,1.278,0.864,2.268,0.864c2.52,0,3.942-2.322,3.942-5.058c0-1.026-0.216-2.106-0.846-3.15h-0.054
		L348.723,52.074z"/>
</g>
<g>
	<path d="M335.295,246.366c1.278,0,1.458-0.702,1.458-1.332c0-0.504-0.072-1.008-0.144-1.512c-0.072-0.504-0.144-1.008-0.144-1.494
		c0-1.656,1.098-2.358,2.628-2.358h0.36v0.99h-0.306c-1.062,0.018-1.44,0.576-1.44,1.548c0,0.414,0.072,0.846,0.126,1.278
		c0.072,0.45,0.144,0.882,0.144,1.368c0.018,1.152-0.504,1.728-1.296,1.944v0.036c0.792,0.198,1.314,0.81,1.296,1.962
		c0,0.486-0.072,0.936-0.144,1.368c-0.054,0.45-0.126,0.864-0.126,1.296c0,1.008,0.432,1.548,1.44,1.566h0.306v0.99h-0.378
		c-1.476,0-2.61-0.648-2.61-2.466c0-0.486,0.072-0.99,0.162-1.476c0.054-0.486,0.126-0.972,0.126-1.44c0-0.576-0.18-1.35-1.458-1.35
		V246.366z"/>
	<path d="M344.151,241.776h-0.036l-2.034,1.098l-0.306-1.206l2.556-1.368h1.35V252h-1.53V241.776z"/>
	<path d="M349.425,254.232c0.396-1.08,0.882-3.006,1.08-4.32l1.764-0.18c-0.432,1.53-1.224,3.528-1.728,4.374L349.425,254.232z"/>
	<path d="M354.591,250.902c0.342,0.018,0.738,0,1.278-0.072c0.918-0.108,1.782-0.486,2.448-1.134
		c0.774-0.702,1.332-1.728,1.548-3.114h-0.054c-0.648,0.792-1.584,1.26-2.772,1.26c-2.106,0-3.456-1.584-3.456-3.6
		c0-2.196,1.62-4.14,4.014-4.14c2.394,0,3.87,1.926,3.87,4.932c0,2.574-0.864,4.374-2.016,5.508c-0.9,0.864-2.142,1.422-3.402,1.566
		c-0.576,0.072-1.098,0.108-1.458,0.09V250.902z M357.453,241.308c-1.332,0-2.286,1.188-2.286,2.844c0,1.458,0.882,2.484,2.25,2.484
		c1.062,0,1.89-0.522,2.322-1.224c0.072-0.144,0.126-0.324,0.126-0.576c0.018-2.016-0.738-3.528-2.394-3.528H357.453z"/>
	<path d="M366.705,247.284c-1.278,0-1.458,0.774-1.458,1.35c0,0.468,0.072,0.954,0.144,1.44c0.072,0.486,0.144,0.99,0.144,1.476
		c0,1.818-1.134,2.466-2.61,2.466h-0.378v-0.99h0.306c1.008-0.018,1.44-0.558,1.44-1.566c0-0.432-0.072-0.846-0.126-1.296
		c-0.072-0.432-0.144-0.882-0.144-1.368c-0.018-1.152,0.504-1.764,1.296-1.962v-0.036c-0.792-0.216-1.314-0.792-1.296-1.944
		c0-0.486,0.072-0.918,0.144-1.368c0.054-0.432,0.126-0.864,0.126-1.278c0-0.972-0.378-1.53-1.44-1.548h-0.306v-0.99h0.36
		c1.53,0,2.628,0.702,2.628,2.358c0,0.486-0.072,0.99-0.144,1.494s-0.144,1.008-0.144,1.512c0,0.63,0.18,1.332,1.458,1.332V247.284z
		"/>
	<path d="M336.275,264.366c1.278,0,1.458-0.702,1.458-1.332c0-0.504-0.072-1.008-0.144-1.512c-0.072-0.504-0.144-1.008-0.144-1.494
		c0-1.656,1.098-2.358,2.628-2.358h0.36v0.99h-0.306c-1.062,0.018-1.44,0.576-1.44,1.548c0,0.414,0.072,0.846,0.126,1.278
		c0.072,0.45,0.144,0.882,0.144,1.368c0.018,1.152-0.504,1.728-1.296,1.944v0.036c0.792,0.198,1.314,0.81,1.296,1.962
		c0,0.486-0.072,0.936-0.144,1.368c-0.054,0.45-0.126,0.864-0.126,1.296c0,1.008,0.432,1.548,1.44,1.566h0.306v0.989h-0.378
		c-1.476,0-2.61-0.647-2.61-2.466c0-0.486,0.072-0.99,0.162-1.476c0.054-0.486,0.126-0.972,0.126-1.44c0-0.576-0.18-1.35-1.458-1.35
		V264.366z"/>
	<path d="M345.743,270.198c-2.34,0-4.176-1.728-4.176-4.482c0-2.916,1.926-4.626,4.32-4.626c2.502,0,4.194,1.818,4.194,4.464
		c0,3.24-2.25,4.645-4.32,4.645H345.743z M345.797,269.01c1.512,0,2.646-1.422,2.646-3.402c0-1.476-0.738-3.33-2.61-3.33
		c-1.854,0-2.664,1.728-2.664,3.384c0,1.908,1.08,3.348,2.61,3.348H345.797z"/>
	<path d="M350.552,272.232c0.396-1.08,0.882-3.006,1.08-4.32l1.764-0.18c-0.432,1.53-1.224,3.528-1.728,4.375L350.552,272.232z"/>
	<path d="M355.087,268.398c0.486,0.288,1.314,0.612,2.106,0.612c1.134,0,1.674-0.558,1.674-1.296c0-0.756-0.45-1.17-1.602-1.602
		c-1.584-0.576-2.322-1.422-2.322-2.466c0-1.404,1.152-2.556,3.006-2.556c0.882,0,1.656,0.234,2.124,0.54l-0.378,1.134
		c-0.342-0.198-0.972-0.504-1.782-0.504c-0.936,0-1.44,0.54-1.44,1.188c0,0.738,0.504,1.062,1.638,1.494
		c1.494,0.558,2.286,1.314,2.286,2.628c0,1.548-1.206,2.628-3.24,2.628c-0.954,0-1.836-0.252-2.448-0.612L355.087,268.398z"/>
	<path d="M365.726,265.284c-1.278,0-1.458,0.774-1.458,1.35c0,0.468,0.072,0.954,0.144,1.44c0.072,0.486,0.144,0.99,0.144,1.476
		c0,1.818-1.134,2.466-2.61,2.466h-0.378v-0.989h0.306c1.008-0.019,1.44-0.559,1.44-1.566c0-0.432-0.072-0.846-0.126-1.296
		c-0.072-0.432-0.144-0.882-0.144-1.368c-0.018-1.152,0.504-1.764,1.296-1.962v-0.036c-0.792-0.216-1.314-0.792-1.296-1.944
		c0-0.486,0.072-0.918,0.144-1.368c0.054-0.432,0.126-0.864,0.126-1.278c0-0.972-0.378-1.53-1.44-1.548h-0.306v-0.99h0.36
		c1.53,0,2.628,0.702,2.628,2.358c0,0.486-0.072,0.99-0.144,1.494c-0.072,0.504-0.144,1.008-0.144,1.512
		c0,0.63,0.18,1.332,1.458,1.332V265.284z"/>
</g>
</svg>
